<svg version="1.1" xmlns="http://www.w3.org/2000/svg" xmlns:xlink="http://www.w3.org/1999/xlink" width="60.47666" height="191.72663" viewBox="0,0,60.47666,191.72663"><g transform="translate(-210.96693,-86.00076)"><g data-paper-data="{&quot;isPaintingLayer&quot;:true}" fill-rule="nonzero" stroke="none" stroke-width="0.95" stroke-linecap="butt" stroke-linejoin="miter" stroke-miterlimit="10" stroke-dasharray="" stroke-dashoffset="0" style="mix-blend-mode: normal"><path d="M242.69982,95.119c0.51543,0.1691 1.41752,0.5244 1.78927,0.9063c0.4929,0.5064 1.04488,1.0289 1.52553,1.5685c0.64774,0.7258 0.87117,1.4839 1.25507,2.3522c0.34645,0.7809 0.9848,1.7708 1.14627,2.6001c0.31542,1.6093 -0.30603,3.5369 0.5172,4.9961c0.39991,0.7077 0.84863,1.1628 1.20635,1.9066c0.24309,0.5083 0.30603,1.0251 0.49467,1.5476c0.17649,0.4854 0.13054,0.8835 0.13617,1.4164c0.01028,1.0308 -0.11176,1.881 -0.48064,2.832c-0.41404,1.0668 -0.61395,2.0092 -1.24667,2.9906c-0.42718,0.664 -0.4262,1.5314 -0.68065,2.2752c-0.15396,0.4446 -0.40455,0.8664 -0.69656,1.2075c-0.14645,0.1691 -0.19803,0.5291 -0.30979,0.7362c-0.092,0.1739 -0.24408,0.1634 -0.34635,0.3031c-0.57551,0.7923 -2.13572,0.8464 -2.98999,0.9205c-0.64488,0.0561 -1.18095,-0.1368 -1.83146,-0.1539c-0.46375,-0.0133 -0.81395,-0.0931 -1.22325,-0.1928c-0.17174,0.5975 -0.41206,1.5048 -0.25623,2.1565c0.15959,0.6678 0.90585,0.8873 1.35645,1.3062c0.33706,0.3135 0.52294,0.4978 0.43282,0.9605c-0.04042,0.2128 -0.11739,0.6536 -0.19437,0.8512c-0.25435,0.6441 -1.19499,1.0003 -1.78176,1.2179c-2.27179,0.8407 -4.17934,-0.3449 -6.2361,-1.311c-1.89727,-0.8902 -3.48002,-2.2829 -4.36897,-4.2323c-0.23192,-0.5025 -0.17649,-0.4655 0.02154,-0.9918c0.13429,-0.3543 0.27698,-0.7381 0.39991,-1.1162c0.3173,-0.9833 0.33232,-1.8506 0.28449,-2.8671c-0.04793,-1.0222 0.02905,-2.1689 -0.39991,-3.078c-0.39428,-0.8284 -0.4844,-1.4839 -0.74261,-2.3997c-0.42333,0.3087 -0.63272,0.702 -1.24291,0.6498c-0.45999,-0.039 -1.08046,-0.475 -1.45221,-0.7686c-0.47126,-0.3733 -0.84676,-0.7562 -1.28046,-1.1932c-0.52669,-0.5339 -0.88905,-0.6469 -0.99231,-1.4079c-0.10415,-0.7505 -0.29289,-1.7708 -0.092,-2.5032c0.11364,-0.4 0.25445,-0.7458 0.33894,-1.1676c0.10978,-0.5339 0.26937,-0.5928 0.79606,-0.7543c0.79606,-0.2432 1.70004,-0.0817 2.30647,0.4674c0.33795,0.3031 0.47501,0.8256 0.79043,1.1514c0.36987,0.3819 0.46938,0.6945 1.11811,0.5862c-0.02629,-0.4665 0.14269,-0.9358 0.0582,-1.4117c-0.07421,-0.4133 -0.32293,-0.8408 -0.44971,-1.2455c-0.19615,-0.6137 -0.61019,-0.8787 -0.94063,-1.4079c-0.26097,-0.4161 -0.51157,-0.5975 -0.71909,-1.0184c-0.25999,-0.5234 -0.28064,-1.1561 -0.46187,-1.728c-0.1417,-0.4427 -0.05909,-0.8113 0.06196,-1.2569c0.26947,-0.9823 1.0683,-1.6349 1.89727,-2.3531c0.21591,-0.3164 0.56414,-0.4171 0.89083,-0.6698c1.58373,-1.2283 3.24533,-1.9712 5.24013,-2.2752c1.70666,-0.2603 3.73724,-0.2898 5.4016,0.3429c0.18686,-0.3344 0.28538,-1.1257 0.60644,-1.1865c0.27412,-0.0532 1.135,0.3733 1.38936,0.4389" fill="#a16235"/><path d="M230.23413,166.0451c-0.21404,0.2261 -0.21967,0.6897 -0.31167,0.9937c-0.13706,0.4474 -0.14269,0.8027 -0.4506,1.1998c-0.20939,0.2717 -0.53045,0.4855 -0.67314,0.8123c-0.09852,0.2318 -0.04595,0.5149 -0.15583,0.7514c-0.16799,0.3601 -0.58667,0.5995 -0.60831,1.0099c-0.0169,0.2793 0.18686,0.6688 -0.2422,0.7609c-0.25435,0.0561 -0.42708,-0.2109 -0.57916,-0.3771c-0.58114,-0.6308 -1.7114,-1.3329 -2.39669,-1.8658c-0.8514,-0.6641 -1.2438,-0.9472 -2.054,-1.5428c-0.3173,-0.2337 -0.6177,-0.4997 -0.93876,-0.7239c-0.37175,-0.2594 -0.76128,-0.4598 -1.13491,-0.7116c-0.0582,-0.1748 -0.21779,-0.3524 -0.28074,-0.5481c-0.10791,-0.3259 -0.0751,-0.7144 -0.03844,-1.0545c0.02816,-0.2974 0.17461,-0.4057 0.28815,-0.6688c0.11739,-0.2594 0.13054,-0.5586 0.25445,-0.8246c0.2919,-0.6327 0.37076,-1.2151 0.91711,-1.7214c0.56138,-0.5178 1.09834,-0.9206 1.78551,-1.2569c0.64774,-0.3163 1.27295,-0.5234 1.92919,-0.1263c0.3004,0.1814 0.53509,0.551 0.74626,0.8322c0.23844,0.3182 0.47689,0.6194 0.68252,0.9595c0.39615,0.6574 0.89834,1.0972 1.36208,1.7138c0.25821,0.341 0.56513,0.7286 0.86178,1.0355c0.35208,0.3638 0.81771,0.9034 0.98668,1.3756c-0.00939,-0.0409 -0.03755,-0.0532 -0.05731,-0.0732" fill="#a16235"/><path d="M257.88987,156.2943c-0.01789,0.1463 0.01966,0.2821 0.03281,0.4208c0.04605,0.4361 0.21502,0.6935 0.35208,1.0897c0.0582,0.1691 0.03281,0.3876 0.092,0.5614c0.06571,0.1881 0.19902,0.3202 0.28163,0.494c0.30791,0.6394 0.26473,1.3737 0.0666,2.0368c-0.18864,0.6413 -0.58855,1.2312 -0.84863,1.863c-0.15672,0.3743 -0.20366,0.5728 -0.48904,0.8787c-0.18874,0.2033 -0.32105,0.4465 -0.50228,0.6584c-0.13894,0.1653 -0.32293,0.3382 -0.50969,0.4379c-0.39151,0.2071 -0.41493,-0.0114 -0.54734,-0.3923c-0.21967,-0.6403 -0.49843,-1.3614 -0.81385,-1.9703c-0.39803,-0.7638 -0.71721,-1.5637 -1.0355,-2.3798c-0.15208,-0.3857 -0.3426,-0.7742 -0.4177,-1.1675c-0.05356,-0.2803 -0.33143,-0.6717 -0.27323,-0.9434c0.70594,-0.037 1.37809,0.0295 2.0456,-0.2251c0.41117,-0.1568 0.75189,-0.3895 1.11613,-0.6242c0.37649,-0.2413 0.98569,-0.7495 1.41752,-0.8084" fill="#a16235"/><path d="M244.68998,96.0234c-0.61859,-0.2983 -1.22503,-0.6621 -2.04649,-1.0383c-0.46187,-0.2138 -1.12927,-0.5121 -1.44845,-0.038c-0.18874,0.2831 -0.36987,0.4997 -0.48914,0.8094c-0.6599,-0.0979 -1.39311,-0.2385 -2.05676,-0.3268c-0.71721,-0.096 -1.88314,-0.0922 -2.54689,-0.0181c-1.96012,0.2166 -3.50907,0.8816 -5.2345,1.8905c-0.76691,0.4475 -1.40626,0.7885 -1.99856,1.4298c-0.50792,0.55 -1.08332,1.0165 -1.39875,1.7043c-0.56049,1.2264 0.0169,2.6885 0.75753,3.7857c0.75575,1.1172 1.86249,2.148 1.5696,3.6262c-0.03093,0.1643 -0.09664,0.9538 -0.18864,1.0488c-0.23469,0.2394 -0.59893,-0.1349 -0.76415,-0.3249c-0.38489,-0.4437 -0.59053,-1.0688 -1.06554,-1.4583c-0.2253,-0.1852 -0.63648,-0.455 -0.90585,-0.5519c-0.32392,-0.115 -0.54448,0.1216 -0.80644,-0.0437c-0.48341,-0.304 -1.26258,-1.4944 -1.45221,-1.976c-0.28914,-0.7249 -0.36424,-1.3623 -0.5511,-2.1299c-0.17649,-0.7211 -0.31918,-1.388 -0.39991,-2.148c-0.08637,-0.8398 -0.11354,-1.4791 0,-2.3541c0.0498,-0.3762 0.1249,-0.968 0.21591,-1.3366c0.09763,-0.3914 0.18123,-0.7106 0.29852,-1.0783c0.25445,-0.7951 0.66187,-1.767 1.12937,-2.4491c0.42521,-0.6194 0.96781,-1.368 1.48323,-1.9c0.31918,-0.3306 0.58855,-0.5358 0.94814,-0.8179c0.28726,-0.2261 0.62897,-0.4684 0.92186,-0.6859c0.57916,-0.4313 1.23066,-0.913 2.00232,-1.2046c1.69727,-0.6384 3.43585,-0.8892 5.2345,-0.6175c0.72571,0.1102 1.48699,0.3515 2.17791,0.6726c0.38864,0.1776 0.5924,0.3923 0.89844,0.6669c0.367,0.3277 0.77166,0.3011 1.17344,0.5557c-0.02065,-0.0237 0.31631,0.1264 0.29754,0.0998c-0.01878,-0.0162 0.81583,0.0218 0.25445,0.0959c0.77166,0.0713 0.99597,0.3544 1.64845,0.7287c0.68529,0.3952 1.33116,0.8426 1.79302,1.5143c0.37926,0.55 0.47689,1.1675 0.67116,1.7993c0.11364,0.3724 0.13143,0.5624 0.09862,0.9633c-0.01878,0.208 0.00652,0.3923 -0.05356,0.5975c-0.04219,0.1416 -0.27688,0.4608 -0.12668,0.3677M228.07687,86.7115c-0.95289,0.3553 -1.94322,0.7182 -2.84354,1.2303c-0.92749,0.5263 -2.09718,1.254 -2.80876,2.0653c-1.13491,1.2958 -1.74322,2.4016 -2.37031,3.99c-0.35772,0.9044 -0.6346,1.7062 -0.6346,2.7037c0,0.8455 0.06196,1.6292 0.14457,2.4633c0.1671,1.7262 0.61582,3.2053 1.49825,4.7225c0.20742,0.3553 0.33884,0.8654 0.56701,1.2065c0.31167,0.4683 0.71158,0.7571 1.08332,1.1894c0.53885,0.627 1.80053,1.0763 1.7198,1.8857c-0.08261,0.8028 -0.15208,1.6787 -0.01502,2.4605c0.06008,0.3449 0.21028,0.7534 0.38677,1.0469c0.15959,0.2632 0.62709,0.5444 0.56701,0.8246c0.643,0.5577 1.2185,0.9918 1.93571,1.4127c0.88055,0.5168 1.38837,0.3923 2.31023,-0.1701c-0.12856,0.9776 0.60179,2.3484 0.78855,3.2376c0.17184,0.8151 0.38489,1.8326 0.26008,2.6838c-0.10988,0.7514 -0.46562,1.8002 -1.28521,2.0273c-1.47572,0.4094 -1.21564,-3.2148 -1.41377,-4.2665c-0.50031,0.4788 -0.9434,1.0317 -1.3527,1.6074c-0.42531,0.6014 -0.96129,1.5447 -1.85785,1.4877c-0.75753,-0.0465 -0.48064,-0.7248 -0.56978,-1.329c-0.1249,-0.8474 0.01028,-1.6074 0.33509,-2.3959c-0.38301,0.3553 -0.77353,0.7305 -1.11613,1.1172c-0.28074,0.3163 -0.29012,0.6887 -0.57926,0.9851c-0.69843,0.7106 -1.91882,0.3278 -2.24926,-0.5415c-0.31918,-0.836 -0.18864,-1.7945 -0.11354,-2.6087c0.08538,-0.9205 0.36048,-1.8971 0.1173,-2.7873c-0.32293,0.1881 -0.56701,0.8503 -0.79794,1.1552c-0.25159,0.3335 -0.37076,0.3781 -0.75377,0.589c-0.66563,0.3667 -0.87492,0.551 -1.4279,0.0817c-0.935,-0.7923 -0.92186,-3.9026 -0.36513,-5.0274c-0.27323,0.5301 -1.1772,1.3633 -1.76397,1.4611c-0.72749,0.1216 -1.35457,-0.6488 -1.54707,-1.2787c-0.2253,-0.74 -0.01591,-1.5124 0.09111,-2.2277c0.11077,-0.7458 0,-1.5343 0.07036,-2.2952c-0.62146,0.5595 -1.18471,3.0419 -2.45391,2.3683c-0.61207,-0.3249 -0.53697,-1.4098 -0.41117,-1.9836c0.16334,-0.7562 0.20564,-1.2369 0.17836,-2.0026c-0.09289,-2.4681 1.23827,-4.5676 2.32624,-6.7516c0.81958,-1.6464 1.63067,-3.5673 2.82002,-4.9809c0.61681,-0.7362 1.54618,-1.2625 2.28681,-1.8724c0.84863,-0.704 1.71328,-1.255 2.71775,-1.7205c1.02137,-0.4712 2.12159,-0.93 3.21054,-1.2084c0.55199,-0.1415 1.27947,-0.4151 1.83433,-0.5177c0.47126,-0.0893 1.01949,0.1358 1.43531,-0.0333" fill="#371e10"/><path d="M237.84645,267.601c0.22342,0.0019 0.43094,-0.057 0.49102,0.1786c0.08073,0.3097 -0.37086,0.5719 -0.55387,0.7201c-0.24882,0.2005 -0.34645,0.4731 -0.57175,0.6935c-0.73312,0.7277 -1.62306,0.9405 -2.62565,1.1372c-1.23165,0.2394 -2.41636,0.513 -3.54948,1.0488c-0.8768,0.4161 -1.71881,0.9006 -2.60035,1.31c-0.92374,0.4247 -2.0117,0.7819 -3.01054,0.9595c-1.24015,0.2204 -2.36942,0.1273 -3.60858,0.0428c-1.2608,-0.0836 -2.87071,-0.2394 -4.11926,-0.4646c-1.09647,-0.2004 -1.23451,-0.4997 -2.054,-0.8844c-0.68628,-0.3211 -1.65695,-0.6907 -1.69915,-1.5789c-0.01601,-0.286 -0.02629,-0.2451 0.00188,-0.5197c0.04032,-0.3562 0.44309,-0.892 0.73124,-1.1675c0.29101,-0.2784 0.74448,-0.3487 1.08807,-0.5415c0.25248,-0.1368 0.4759,-0.2746 0.75476,-0.4228c0.80545,-0.4284 1.71792,-0.607 2.3628,-1.2673c0.58015,-0.5975 0.94814,-1.2606 1.59401,-1.7613c0.32768,-0.2498 0.72195,-0.3467 1.05615,-0.5747c0.30791,-0.2081 0.43459,-0.4399 0.81761,-0.4902c0.7097,-0.095 1.34341,0.1377 2.00241,0.3562c0.80822,0.2679 1.6447,0.552 2.41636,0.8911c0.85328,0.3753 1.67286,0.8256 2.56181,1.0944c0.95002,0.2841 1.87563,0.608 2.81814,0.8959c1.91793,0.5785 3.8818,0.0237 5.82878,0.3097c-0.0338,0.0019 -0.06482,0.0019 -0.09763,0.0019" fill="#4e3a78"/><path d="M261.25901,262.9783c0.20376,0.1777 0.13429,0.3135 0.38113,0.4285c0.36147,0.1672 0.59428,0.5035 0.96791,0.6517c0.74251,0.2878 1.41001,0.7961 2.1619,1.0858c1.6945,0.6536 4.04327,0.9035 5.53303,1.2616c0.64211,0.1539 1.05803,0.7572 -0.51819,1.8126c-0.48529,0.3221 -0.67778,0.6213 -1.16406,0.9719c-0.58104,0.418 -1.3189,0.5937 -1.97326,0.8797c-0.56325,0.2422 -1.45784,0.228 -2.03147,0.4208c-0.79043,0.2613 -1.64282,0.1501 -2.46794,0.1891c-0.89844,0.0446 -1.97425,0.0522 -2.87822,-0.1017c-0.6928,-0.1197 -1.54331,-0.2565 -2.24926,-0.3363c-0.66464,-0.0731 -0.73974,-0.19 -1.41001,-0.2907c-0.32856,-0.0484 -0.76415,-0.2413 -1.0852,-0.3401c-0.3924,-0.1225 -0.8684,-0.1786 -1.22226,-0.3562c-0.29289,-0.1454 -0.72758,-0.2128 -1.03075,-0.3012c-0.77166,-0.227 -1.85034,-0.494 -2.64729,-0.6289c-1.58274,-0.2679 -2.43513,0.0276 -3.70057,0.4114c-2.42762,0.7334 -3.16459,-0.2518 -3.50156,-0.2993c0,-0.1909 0.29289,-1.4972 0.43459,-1.6321c0.21967,-0.2052 1.94135,-0.741 2.17228,-0.93c0.39428,-0.323 1.51426,-0.5605 2.0287,-0.6517c0.43835,-0.0741 1.36772,0.1548 1.80617,0.1957c0.5172,0.0494 1.37523,0.1425 1.88502,0.2318c1.34805,0.2318 3.10254,0.4674 4.43933,0.7144c1.20635,0.2213 1.65972,0.0551 3.23406,-0.3525c0.51908,-0.1311 0.74626,-0.9728 0.99973,-1.4535c0.12579,-0.2375 0.42343,-0.6583 0.58954,-0.8901c0.11828,-0.1653 0.48914,-0.0247 0.63183,-0.1558c0.09575,-0.0836 -0.00563,-0.1948 0.09575,-0.0836" fill="#4e3a78"/><path d="M238.19478,268.362c-0.03854,0.2888 0.12955,0.5994 0.2253,0.8607c0.12293,0.3382 0.03844,0.5719 0.00563,0.9148c-0.01314,0.1511 0.0253,0.3173 -0.00376,0.4665c-0.03478,0.1786 -0.15771,0.3306 -0.22718,0.4949c-0.11739,0.2784 -0.19625,0.5092 -0.41216,0.7325c-0.29665,0.304 -0.89458,0.4113 -1.32177,0.5301c-0.96218,0.2669 -1.76387,0.6384 -2.65105,1.0649c-1.2523,0.6033 -2.20884,1.5476 -3.35136,2.3028c-0.22155,0.1473 -0.38301,0.3468 -0.61207,0.4855c-0.22155,0.133 -0.47689,0.2251 -0.70219,0.3496c-0.57827,0.3201 -1.22315,0.4959 -1.85775,0.6925c-0.68717,0.2138 -1.31614,0.3734 -2.0371,0.399c-1.10022,0.039 -2.19857,-0.1092 -3.29503,-0.1035c-1.91882,0.0057 -3.82637,-0.2765 -5.69825,-0.5767c-0.5257,-0.0836 -1.05615,-0.1833 -1.58185,-0.3097c-0.49379,-0.1225 -0.74438,-0.303 -1.0767,-0.6811c-0.67689,-0.7686 -0.99508,-1.5846 -0.93223,-2.6553c0.02727,-0.4788 0.3089,-0.8778 0.44596,-1.3119c0.11917,-0.381 0.31354,-1.0764 0.65614,-1.2987c0.09951,0.1539 0.06295,0.323 0.19249,0.4864c0.11077,0.1387 0.25534,0.2185 0.35011,0.3734c0.10988,0.1919 0.09388,0.2745 0.29012,0.4142c0.14645,0.1016 0.30416,0.1729 0.46187,0.247c0.72284,0.3486 1.34805,0.7809 2.16754,0.9405c0.60555,0.1149 1.25793,0.0133 1.83719,0.171c0.71622,0.1928 1.4025,0.3078 2.13562,0.399c1.68512,0.2023 3.4227,0.2042 5.05525,-0.323c1.29548,-0.419 2.69798,-0.5624 3.81322,-1.4032c0.62521,-0.4693 1.23629,-0.8474 2.0117,-1.0241c0.41404,-0.0959 0.82146,-0.1966 1.23352,-0.3002c0.27323,-0.0684 1.09647,-0.1054 1.20072,-0.3268c0.7848,-0.2299 1.71605,-0.4455 2.38908,-0.931c0.21216,-0.1539 0.3755,-0.3895 0.568,-0.57c0.21591,-0.2023 0.44873,-0.3372 0.69656,-0.475" fill="#bfb3d8"/><path d="M271.08877,266.8116c0.44685,-0.0732 0.01028,0.8873 -0.01976,1.0887c-0.06571,0.4493 -0.0582,0.911 -0.0582,1.3727c0,0.5377 -0.09763,0.9405 -0.28252,1.445c-0.1671,0.455 -0.52758,0.7239 -0.74261,1.1409c-0.23281,0.4532 -0.60644,0.7391 -1.1021,0.9301c-0.74814,0.2878 -1.53857,0.6526 -2.33464,0.7628c-1.80715,0.2556 -3.8987,0.1758 -5.62226,-0.455c-1.00822,-0.3696 -2.16378,-0.8056 -3.22556,-0.97c-0.84577,-0.132 -1.77988,-0.0817 -2.62288,-0.0057c-1.22038,0.1112 -2.45015,0.2651 -3.68081,0.2651c-1.23728,0 -2.48494,0.0266 -3.71658,0.1263c-1.05892,0.0827 -2.08028,-0.0494 -3.12319,-0.2166c-0.41216,-0.0636 -0.80269,-0.1501 -1.20823,-0.2375c-0.19427,-0.0408 -0.80634,-0.0408 -0.96969,-0.1843c-0.1671,-0.1482 -0.05544,-0.4379 -0.08261,-0.6393c-0.04605,-0.3126 -0.05731,-0.5681 -0.05544,-0.8949c0.00474,-0.4978 0.04042,-1.0669 0.25633,-1.5143c0.19902,-0.4161 0.88144,0.0142 1.23352,0.0988c0.65239,0.1577 1.37898,-0.1387 2.00232,-0.3059c1.18945,-0.3173 2.60599,-0.7477 3.82923,-0.4361c1.01386,0.2575 2.01081,0.6907 3.04345,0.9358c0.51345,0.1235 1.03075,0.2175 1.52266,0.3895c0.43084,0.1482 1.07581,0.2166 1.43343,0.5063c0.11927,-0.0475 0.50228,0.0779 0.68905,0.1102c0.22066,0.0409 0.43934,0.0532 0.66464,0.0798c1.21011,0.1463 2.38167,0.3876 3.59356,0.5045c1.07206,0.1007 2.41448,0.1434 3.46213,-0.0817c0.8599,-0.1853 1.76585,-0.2242 2.60035,-0.4693c0.6675,-0.1967 1.34805,-0.609 1.96486,-0.9358c0.4844,-0.2574 0.99785,-0.5899 1.42315,-0.95c0.21404,-0.1776 0.34922,-0.4018 0.52758,-0.6165c0.14269,-0.1777 0.55199,-0.7809 0.70782,-0.7971" fill="#bfb3d8"/><path d="M257.58571,178.834c0.13044,1.2217 0.51632,2.299 0.79043,3.5919c0.27313,1.2882 0.55288,2.5308 0.69092,3.8409c0.21493,2.0225 0.45811,4.3348 0.35386,6.3821c-0.1173,2.3256 -0.17649,4.6331 -0.42896,6.9378c-0.25633,2.3342 -0.99044,4.5961 -1.42128,6.9227c-0.50228,2.698 -1.07769,5.3475 -1.503,8.055c-0.18963,1.2018 -0.31354,2.414 -0.44398,3.6214c-0.12115,1.1134 -0.15771,2.1005 -0.61207,3.1616c-0.66375,1.5457 -2.03997,2.2268 -3.36924,3.0837c-1.01949,0.6546 -1.96388,1.5419 -2.94483,2.2762c-1.55932,1.1676 -3.28851,1.8782 -5.13875,2.4738c-2.09342,0.6774 -4.30326,1.0023 -6.4371,1.5162c-2.20509,0.5349 -4.38587,0.9092 -6.63888,1.1657c-2.39847,0.2669 -4.78578,0.6887 -7.20589,0.683c-0.86366,-0.0019 -1.65972,-0.2821 -2.41448,-0.3467c-0.04032,-0.9928 -0.00563,-2.0672 -0.00751,-3.0248c0.04229,-0.4826 -0.10978,-0.9329 -0.18113,-1.4013c-0.14457,-0.9272 -0.68529,-1.4772 -0.68529,-2.5659c0,-1.0431 0.43934,-2.2154 0.43934,-3.2956c0,-0.4807 0,-1.0573 0,-1.5846c0,0.0076 0,0.0162 0,0.02c0,-1.5039 0.60545,-3.0685 0.95378,-4.5325c0.24309,-1.0089 -0.05445,-2.2543 0.21216,-3.2822c0.2422,-0.95 0.69843,-1.7661 0.85427,-2.7237c0.16898,-1.0488 0.65713,-3.5311 0.65713,-4.5923c0,-2.355 0.39052,-2.1726 0.97532,-4.6426c0.27698,-1.1543 0.38301,-2.3693 0.49853,-3.5293c0.10139,-1.0573 0.31542,-2.089 0.45337,-3.1597c0.06759,-0.512 0.25445,-1.0535 0.43094,-1.5475c0.19615,-0.551 0.23093,-1.0042 0.36611,-1.5495c0.12293,-0.5063 0.35386,-0.8759 0.40179,-1.425c0.04783,-0.5472 0.14457,-0.9709 0.30416,-1.4839c0.35949,-1.1637 0.66553,-2.2952 0.93125,-3.4722c0.26374,-1.1676 0.19803,-2.6733 0.67492,-3.7601c0.55199,-1.2559 0.46375,-2.6942 1.24103,-3.9169c0.6093,-0.9585 1.18283,-1.2445 2.07564,-0.627c0.32105,-0.0969 1.78176,0.8493 2.18355,1.0346c0.74814,0.3448 1.06356,0.5994 1.75261,0.8246c1.65972,0.5443 4.11086,1.8183 5.794,2.052c0.00188,0.0047 -0.09852,-0.0618 -0.10791,-0.0684c0.42896,0.0646 2.78712,0.4218 3.24523,0.4218c2.26616,0 3.11578,0.1805 5.43352,-0.1226c1.56584,-0.2052 3.04908,-0.4275 4.56798,-0.7771c0.60179,-0.1368 2.62852,-1.159 3.07635,-0.6963M219.42431,229.5706c0.05919,-0.2764 0.51167,-1.4877 0.25722,-1.5656c0.34645,-0.4227 0.07135,-0.7011 0.13706,-1.2692c0.17836,-1.5418 4.99329,-0.1615 6.69432,-0.7476c2.39659,-0.8218 4.92372,-1.1058 7.41143,-1.5124c2.57031,-0.4209 5.13124,-0.9263 7.65461,-1.5903c2.88761,-0.7591 5.83441,-1.6369 8.43101,-3.1616c1.66061,-0.9776 3.03969,-2.2933 4.56047,-3.4637c0.31918,-0.2442 1.15467,-1.2512 1.63531,-0.9253c0.28914,0.1966 -0.04605,2.0881 -0.05168,2.2762c-0.07698,2.2268 -0.1502,4.2522 0.15583,6.4429c0.3089,2.2059 -0.43647,4.484 -0.0497,6.6918c0.09012,0.5234 -0.23844,1.2378 0.04595,1.672c0.36898,0.5624 0.39339,0.8863 0.35959,1.5789c-0.02352,0.4588 0.36888,0.6137 0.39428,1.0241c0.03093,0.5339 0.52758,0.8046 0.93125,1.0972c0.56513,0.4114 0.62047,0.4912 0.65525,1.1932c0.02629,0.5691 -0.43845,1.2949 -0.57551,1.8734c-0.18775,0.7885 -0.69932,1.5666 -0.74626,2.3931c-0.02816,0.5434 0.01779,1.083 0.14457,1.6036c0.27688,1.1248 1.19597,2.5441 1.74233,3.5311c0.6843,1.236 0.51345,2.0872 0.42145,3.4286c-0.0253,0.3838 -0.15485,0.7885 -0.18301,1.1742c-0.01976,0.2375 0.11917,0.6146 0.11542,0.7552c-0.01127,0.4304 0.69843,0.4674 0.95101,1.0517c0.28914,0.6707 1.04953,1.4981 1.3189,1.8411c0.62897,0.8113 0.7266,1.481 1.40813,1.8002c0.6759,1.4488 0.78104,0.4047 1.06178,1.711c0.11917,0.551 -0.09486,0.4655 -0.34734,0.9576c-0.24131,0.455 -0.13805,1.3243 -0.4506,1.7328c-0.25159,0.3287 -1.02799,2.1717 -1.15378,2.5925c-0.15297,0.5159 -0.8852,-1.2606 -1.76012,-0.4455c-0.3671,0.342 -0.24595,0.5529 -0.57175,0.9357c-0.35574,0.4161 -0.50218,0.9538 -0.93876,1.2711c-0.38578,0.2793 -0.46562,0.4019 -0.94251,0.5596c-0.4675,0.1529 -1.52078,0.4474 -1.97139,0.4047c-1.26544,-0.1226 -2.15439,-0.3449 -3.41519,-0.4047c-1.68126,-0.0817 -3.37576,-0.8702 -5.1012,-0.7885c-0.843,0.0389 -1.12176,0.0095 -1.77613,0.2964c-0.53598,0.228 -2.20232,0.5472 -2.63504,0.9329c-0.3755,0.3401 -0.83925,-0.096 -1.27957,0.1615c-0.21216,0.1225 -0.52383,-0.3544 -0.69468,-0.1748c-0.0582,0.0608 -0.70219,0.399 -0.69092,0.3933c-0.55762,0.3087 -0.68717,0.3885 -1.28886,0.5719c-0.4506,0.1387 -0.24506,0.247 -0.69468,0.2175c-0.49191,-0.0285 -0.79794,-0.0389 -1.30586,-0.1187c-1.1603,-0.1843 -2.51023,0.3762 -3.66866,0.1026c-1.63531,-0.3848 -3.00678,-0.3544 -4.13991,-1.1153c-0.59606,-0.3971 -2.15252,-0.7771 -2.80688,-1.0488c-0.84201,-0.3468 -2.02109,-0.7904 -2.86222,-1.1372c-1.20823,-0.494 -1.85221,-0.5529 -2.4793,0.1387c-0.64586,0.7125 -0.5595,1.0184 -1.67751,1.6397c-0.80644,0.4522 -0.7848,1.1258 -1.61002,1.1628c-0.59606,0.6223 -0.38202,-0.418 -1.14429,-1.4126c-0.94063,-1.2284 -1.5527,-3.7554 -0.23469,-4.7443c0.07135,-0.8417 -1.3856,-2.2905 -0.87215,-2.7911c0.43558,-0.4228 -1.04765,-1.178 -0.32481,-1.1951c-0.57827,-1.2578 -1.4025,-4.769 -0.95279,-5.6411c0.74814,-1.4488 0.99222,-1.6606 2.49333,-3.2101c0.89646,-0.9281 0.99508,-0.494 0.99508,-1.8981c0,-1.1837 -0.12392,-2.3009 -0.12392,-3.4675c0,-1.1561 0.13795,-2.2638 0.74438,-3.2376c0.59616,-0.9633 0.5173,-2.165 0.56987,-3.2936c0.06196,-1.3794 -0.6675,-3.2215 0,-4.4128c0.2675,-0.4807 0.24971,-1.0545 0,-1.5143" fill="#a17456"/><path d="M233.08508,182.4231c0.57175,0 1.06741,-0.019 1.56584,0.2042c0.75575,0.3382 0.52669,0.4247 0.33519,1.0308c-0.33331,1.0706 -0.22155,2.1289 -0.68065,3.1711c-0.79231,1.7983 -1.57899,3.7686 -3.32784,4.8858c-1.18846,0.76 -2.27367,1.2797 -3.67617,1.4317c-0.60644,0.0655 -1.70666,0.2175 -1.90291,-0.3297c-0.18301,-0.5101 0.27698,-1.6644 0.61207,-2.0007c1.6278,0.8455 3.72409,-1.2188 4.74734,-2.488c0.62333,-0.7724 0.86741,-1.6796 1.28698,-2.5308c0.44596,-0.9054 0.35208,-1.8326 0.7097,-2.7512c0.10425,-0.267 0.13706,-0.5282 0.46375,-0.5472" fill="#4e3a78"/><path d="M259.14968,187.6756c0.12481,0.5938 0.05069,1.2835 0.05069,1.9c0,0.3544 -0.03004,0.7268 0,1.0792c0.02629,0.2784 0.1502,0.5833 0.09476,0.8645c-0.90585,-0.0199 -1.68877,-1.7366 -2.00983,-2.4576c-0.21967,-0.494 -0.42531,-0.7667 -0.76227,-1.1809c-0.33894,-0.4132 -0.26384,-0.874 -0.3671,-1.3841c-0.15583,-0.7695 -0.09575,-1.6217 -0.21305,-2.4111c-0.08449,-0.5558 -0.14556,-0.7648 0.47778,-0.912c0.33519,-0.0798 0.9848,-0.1853 1.15655,0.0893c0.13992,0.2299 0.01314,0.949 0.08637,1.235c0.09575,0.3771 0.21028,0.7818 0.35584,1.1305c0.17273,0.4113 0.27688,0.551 0.3173,1.0241c0.02342,0.2821 0.41582,1.4573 0.7097,1.0782" fill="#4e3a78"/><path d="M213.58901,156.1936c0.0498,-0.4532 -0.24032,-0.874 -0.38864,-1.3006c-0.21028,-0.589 -0.17461,-1.0345 -0.11354,-1.6463c0.06008,-0.6289 -0.07233,-0.9016 -0.184,-1.4478c-0.21216,-1.0431 0.07322,-2.2382 0.23281,-3.2253c0.16147,-0.9965 0.459,-1.9085 0.74814,-2.8823c0.32293,-1.0934 0.33706,-2.0311 0.13429,-3.1559c-0.20376,-1.1276 -0.65248,-1.9779 -0.47501,-3.1787c0.1586,-1.0773 0.45436,-2.1289 0.76415,-3.1597c0.31918,-1.0754 0.54636,-1.9722 1.13491,-2.9583c0.58302,-0.9747 1.3443,-1.7081 2.13098,-2.5042c1.63442,-1.6473 3.24345,-3.5558 5.41286,-4.5277c2.09155,-0.9376 4.2075,-2.7037 6.59856,-2.6191c0.21493,0.3239 0.32856,0.949 0.52284,1.2901c0.26572,0.4683 0.8346,0.8284 1.15467,1.2416c0.72383,0.9301 1.07492,1.0773 1.84846,1.5504c0.90397,0.552 2.03334,1.0773 2.98337,1.5229c1.0852,0.5101 2.43889,1.0716 3.66302,0.816c0.80822,-0.1691 2.35815,-1.0393 2.68573,-1.8952c0.37362,-0.9785 -0.82699,-1.8278 -1.63531,-1.9333c-0.33884,-1.6406 1.1519,-0.5396 1.54242,-0.3952c0.81761,0.304 1.78739,0.6479 2.50272,0.9082c1.22878,0.4484 2.00607,0.9899 3.02092,1.7528c0.85802,0.6422 1.89065,1.1181 2.6801,1.8411c0.83648,0.7638 1.16406,1.6245 1.49825,2.6172c0.40366,1.198 0.78104,2.2981 1.09271,3.4884c0.64873,2.4786 1.44756,4.7852 2.99463,6.8552c0.70505,0.9424 1.17344,1.7252 1.18095,2.889c0.01127,1.2511 -1.25131,2.241 -0.04595,3.2385c0.41206,0.343 0.81761,0.5919 0.92374,1.1685c0.10139,0.5425 -0.00751,0.9396 -0.03478,1.4507c-0.02629,0.5624 0.29289,1.3148 0.75012,1.5855c0.62986,0.3734 0.8514,-0.0294 0.40742,0.7676c-0.59142,1.0564 -1.66822,2.1375 -2.68395,2.7398c-0.91524,0.5425 -2.329,0.8066 -3.36539,0.9529c0.07135,0.6669 0.48815,1.2768 0.73124,1.9199c0.25722,0.6726 0.60742,1.1999 0.74162,1.8782c3.95779,7.6009 2.20706,8.2469 2.15726,8.2146l1.07769,1.7898c-0.38301,1.064 -1.53482,3.1939 0.0582,5.9024c0.64774,1.102 -7.53633,2.4643 -8.48259,2.4567c-1.73294,-0.0133 -2.24639,0.1757 -3.98872,0.1757c-0.99696,0 -3.98971,-0.3515 -4.89566,-0.6004c-1.69253,-0.4655 -5.56307,-2.1812 -6.50558,-2.3968c-1.74045,-0.4 -3.30906,-2.8586 -4.85149,-0.8712c-0.21305,0.2746 -1.65033,-2.8547 -1.55646,-3.4323c0.13617,-0.8151 1.35655,-4.9524 2.5544,-6.3137c0.27501,-0.4304 0.57729,-0.8892 0.5172,-1.388c-0.10227,-0.8464 -0.77729,-1.957 -1.38837,-2.5203c-0.90595,-0.8332 -0.72096,-1.654 -0.17649,-2.5812c1.10961,-1.8838 0.16334,-4.389 -0.76138,-6.1009c-0.60357,-1.1143 -1.28135,-2.317 -2.21635,-3.1635c-0.83174,-0.7524 -1.50201,-2.0919 -2.43049,-2.6837c-0.03844,1.0003 0.092,2.3645 0.092,3.4076c0,0.6014 0.03291,0.9386 0.30791,1.4516c0.18775,0.3496 0.59428,1.3205 0.63835,1.711c0.0498,0.4503 -0.56513,0.455 -0.42896,0.741c0.06097,0.1273 0.90022,0.2375 1.06919,0.3429c1.02512,0.6451 1.87751,1.3452 1.45981,2.7332c-0.12115,0.4075 -0.44596,1.0326 -0.7679,1.3157c-0.52758,0.4627 -0.70782,0.0038 -1.29835,-0.0693c-1.08896,-0.1349 -2.37219,0.8094 -2.9139,1.6473c-0.58667,0.9101 -1.58086,1.7926 -1.64282,2.8984c-0.05445,0.9795 0.39991,2.0862 1.17908,2.6334c-0.33133,0.2993 -0.95466,0.552 -1.39875,0.6783c-0.64488,0.1824 -1.48037,0.2584 -2.09995,0.1967c-1.40161,-0.1397 -2.04085,-0.5178 -2.83603,-1.7157c-0.41493,-0.6242 -0.71434,-0.9823 -0.76316,-1.7271c-0.03478,-0.5425 0,-1.1011 0,-1.6454c0,-0.8579 -0.01225,-0.7192 -0.58114,-1.1343c-0.47313,-0.3458 -0.49566,-0.7106 -0.66741,-1.2341c-0.30979,-0.9538 -0.48351,-2.0225 -0.1671,-3.0276c0.1333,-0.4237 0.50969,-0.9158 0.55288,-1.3357z" fill="#4e3a78"/><path d="M238.84717,88.7046c0.16898,0.1131 0.84863,0.8218 0.73697,0.9652c-0.24408,-0.1377 -0.33706,-0.4959 -0.6177,-0.626c-0.18311,-0.0827 -0.17372,-0.0409 -0.3427,-0.1606c-0.3342,-0.2384 -0.53509,-0.4683 -0.90397,-0.6175c-0.5924,-0.2403 -1.24479,-0.3923 -1.85034,-0.4826c-0.75002,-0.1121 -1.66249,-0.1453 -2.37782,-0.057c-1.56397,0.191 -3.12606,0.7163 -4.5671,1.6511c-0.73786,0.4788 -1.36307,0.9861 -1.97139,1.6017c-0.62897,0.6384 -1.21475,1.4497 -1.67375,2.1888c-0.39803,0.6394 -0.74824,1.5827 -1.04113,2.1622c-0.18489,0.3629 -0.16147,0.6622 -0.27313,1.0393c-0.11927,0.4047 -0.17747,0.7524 -0.25821,1.1742c-0.32105,1.6958 0.15771,3.2699 0.38677,4.9514c0.06107,0.4551 0.07698,1.0222 0.36611,1.4003c0.12955,0.1701 0.12955,0.4465 0.2169,0.6432c0.08637,0.1966 0.33884,0.3211 0.4177,0.532c0.13241,0.3629 0.41868,0.9186 0.71721,1.1685c0.27886,0.2375 0.04605,-0.1273 0.24783,0.2755c-0.367,0.1092 -0.74814,0.2061 -1.02512,0.5158c-0.16334,0.1872 -0.24032,0.8227 -0.49379,0.8788c-0.17362,0.038 -0.42708,-0.3496 -0.57916,-0.4655c-0.33143,-0.2518 -0.62995,-0.5406 -0.99696,-0.7847c-0.55574,-0.3715 -0.94627,-1.1438 -1.30487,-1.7205c-0.40179,-0.645 -0.7764,-1.3452 -1.09182,-2.0406c-0.31819,-0.7001 -0.46187,-1.4525 -0.7181,-2.184c-0.26572,-0.7619 -0.23281,-1.293 -0.33607,-2.091c-0.09486,-0.7039 -0.2084,-1.3328 -0.01976,-2.0425c0.18212,-0.6754 0.1671,-1.3575 0.36987,-2.0425c0.11265,-0.3762 0.31354,-0.7134 0.42807,-1.0963c0.11739,-0.3999 0.06947,-0.436 0.32017,-0.8094c0.42896,-0.6412 0.64586,-1.3585 1.17157,-1.9608c0.32105,-0.3686 0.63084,-0.7125 1.02324,-1.0117c0.31542,-0.2413 0.59517,-0.4931 0.88243,-0.7572c0.52195,-0.4778 1.21376,-0.8113 1.87,-1.1333c1.45033,-0.7154 2.9721,-1.1391 4.5163,-1.4307c0.98668,-0.1862 2.25212,-0.267 3.25096,-0.1568c0.40554,0.0456 0.73786,0.1254 1.15368,0.1786c0.42432,0.0551 1.03263,0.1634 1.42503,0.3553c0.79043,0.3886 1.60626,0.6897 2.31033,1.3158c0.50782,0.4531 1.13491,0.8607 1.33303,1.5988" fill="#bd5da4"/><path d="M237.97323,106.9465c0.59705,0.0751 0.7932,1.7585 0.21591,2.0758c-0.47126,0.2593 -1.10585,0.0817 -1.71229,-0.0808c-1.97237,-0.5272 0.44023,-1.9959 1.29449,-2.146M246.2662,105.5738c-0.33894,0.0294 -0.6675,1.0222 -0.58489,1.3727c0.63746,0.2736 1.3021,0.6698 1.63067,-0.1634c0.13795,-0.3543 0.09388,-1.1086 -0.17747,-1.3243c-0.32945,-0.2603 -0.20178,-0.3382 -0.68154,-0.2926" fill="#371e10"/><path d="M247.01908,104.9553c0.57165,-0.2517 1.52355,0.3658 1.36208,1.0213c-0.11542,0.4702 -0.89271,0.8958 -1.33491,1.1276c0.04042,-0.1862 0.30791,-0.3448 0.37362,-0.5529c0.06196,-0.1976 -0.01966,-0.3952 -0.05534,-0.5747c-0.04229,-0.2176 -0.07322,-0.3582 -0.23093,-0.5168c-0.10613,-0.1055 -0.37649,-0.2214 -0.33143,-0.3895c0.10425,-0.0428 0.2338,-0.0798 0.3258,-0.115M237.77135,106.7955c0.30603,-0.2461 0.87868,-0.2499 1.24854,-0.266c0.39615,-0.0181 0.76227,0.0646 1.14064,0.1054c0.62333,0.0684 1.6193,0.4931 1.22127,1.331c-0.30416,0.6403 -0.98471,0.8084 -1.61555,0.9348c-0.62897,0.1301 -1.26732,0.3458 -1.90478,0.2403c-0.0751,-0.2489 0.31167,-0.3752 0.4506,-0.5339c0.16522,-0.1843 0.25346,-0.4531 0.2253,-0.7049c-0.02154,-0.1919 -0.13894,-0.5405 -0.24783,-0.7049c-0.10978,-0.1672 -0.367,-0.2413 -0.47689,-0.4037" fill="#f5f6f6"/><path d="M238.39844,268.3373c-1.14805,1.5865 -2.81627,2.0862 -4.64585,2.4595c-2.26052,0.456 -4.06669,1.672 -6.17889,2.5441c-2.64452,1.0925 -5.4767,0.7439 -8.21599,0.2356c-1.64845,-0.3078 -5.16879,-0.8056 -5.67107,-2.8652c-0.31918,-1.3062 1.39499,-2.2876 2.30657,-2.7369c0.86741,-0.4256 1.77138,-0.7429 2.5797,-1.2863c1.11989,-0.7515 1.91407,-1.7594 3.11104,-2.4273c0.17085,-0.0969 0.62333,0.1425 0.3924,0.2746c-1.63156,0.9129 -2.77407,2.3883 -4.48824,3.1768c-1.19785,0.5491 -3.43772,1.2521 -3.4142,2.9108c0.03093,2.0729 4.82896,2.5849 6.20606,2.7911c2.94117,0.4436 5.29557,0.3971 8.0733,-0.9168c1.61002,-0.759 2.93742,-1.5979 4.6919,-1.9589c1.85785,-0.379 3.60482,-0.7799 4.79141,-2.4177c0.11927,-0.1606 0.60179,0.0237 0.46187,0.2166zM237.78074,272.0774c-1.92722,0.3696 -3.66866,1.1267 -5.25891,2.2895c-1.2269,0.8978 -2.11408,1.9855 -3.53911,2.5992c-2.60687,1.1191 -5.85032,0.7458 -8.58774,0.4883c-1.59964,-0.1539 -3.19829,-0.3657 -4.79141,-0.5719c-0.74251,-0.0969 -1.63245,-0.247 -2.2455,-0.7239c-1.9038,-1.4839 -0.66553,-4.807 0.47689,-6.3697c0.09486,-0.134 0.57926,0.0389 0.4675,0.1928c-1.28886,1.7604 -2.52901,5.6943 0.40653,6.4866c1.2025,0.3268 2.52337,0.3544 3.7569,0.5064c1.39776,0.1748 2.79275,0.3135 4.20088,0.3781c2.88761,0.132 5.90952,0.0313 8.1315,-2.0834c1.89253,-1.7964 4.11649,-2.9668 6.67178,-3.4551c0.14734,-0.0266 0.58954,0.209 0.31068,0.2631zM237.8925,271.8656c0.01502,0.0199 0.02717,0.0427 0.04219,0.057c-0.14457,-0.0371 -0.29003,-0.0779 -0.43272,-0.1169c0.35011,-0.1463 0.53134,-1.0592 0.61582,-1.3746c0.24408,-0.931 0.07322,-1.8687 -0.30979,-2.7294c-0.10425,-0.2356 0.39991,-0.1852 0.47126,-0.0199c0.38489,0.8683 0.53509,1.7204 0.38677,2.6647c-0.06571,0.4266 -0.29852,1.5219 -0.7679,1.7205c-0.13706,0.0608 -0.34645,0.0152 -0.43282,-0.115c-0.01502,-0.018 -0.02905,-0.0427 -0.04407,-0.0627c-0.13706,-0.2052 0.37264,-0.17 0.47126,-0.0237z" fill="#010101"/><path d="M271.43048,266.7916c0.08073,2.7028 -0.12303,5.6022 -3.19839,6.2776c-0.17649,0.039 -0.59517,-0.2337 -0.30129,-0.2964c2.95332,-0.6498 3.07062,-3.496 2.99552,-6.0363c-0.00751,-0.2299 0.49853,-0.1301 0.50416,0.0551zM242.74587,268.5909c-0.38864,1.1562 -0.41117,2.0558 -0.1418,3.2462c-0.13607,-0.0475 -0.27313,-0.096 -0.41117,-0.1425c0.68529,-0.0257 1.42691,0.3249 2.10281,0.4474c1.32552,0.2432 2.68296,0.2575 4.02538,0.2242c2.36191,-0.0608 4.70504,-0.4151 7.06695,-0.4949c1.68976,-0.0551 3.36262,0.303 4.96888,0.8065c2.71488,0.8503 5.24853,1.1647 7.95314,0.076c0.13706,-0.056 0.50693,0.1558 0.47501,0.1701c-1.65883,0.6669 -3.41055,0.8654 -5.18381,0.7305c-0.71158,-0.0532 -1.43541,-0.2166 -2.11595,-0.4341c-1.75172,-0.5691 -3.4312,-1.0792 -5.28707,-1.1486c-2.50747,-0.0912 -5.04112,0.3933 -7.54572,0.494c-1.08896,0.0456 -2.17515,0 -3.25936,-0.1064c-0.91158,-0.0921 -1.98364,-0.5975 -2.86983,-0.5643c-0.07886,0.0038 -0.38864,-0.0389 -0.41117,-0.1444c-0.2675,-1.177 -0.25623,-2.1356 0.13241,-3.2917c0.03567,-0.1112 0.53035,0.0427 0.5013,0.132zM247.5016,268.0608c1.66436,-0.4009 3.38327,0.2565 4.96315,0.7372c2.26902,0.6945 4.53794,1.3433 6.9046,1.5884c2.05024,0.2109 4.13428,0.1777 6.15162,-0.2546c0.99133,-0.2137 1.9367,-0.5823 2.81814,-1.082c0.41029,-0.2318 2.68395,-1.8164 2.36853,-2.4748c-0.11739,-0.2489 0.39052,-0.2166 0.47501,-0.037c0.26473,0.5586 -0.52195,1.1362 -0.85427,1.5162c-0.60456,0.6811 -1.38847,1.1818 -2.18918,1.5922c-1.79866,0.9205 -3.91273,1.158 -5.90013,1.1989c-2.00518,0.0408 -4.02064,-0.1948 -5.97236,-0.646c-1.30951,-0.3002 -2.58998,-0.7296 -3.88457,-1.0906c-1.46821,-0.4133 -3.03781,-1.1039 -4.58389,-0.7325c-0.19062,0.0447 -0.59428,-0.2441 -0.29665,-0.3154zM247.86772,268.3696c-1.66259,0.113 -3.68466,1.2673 -5.26079,0.2612c-0.28825,-0.1814 0.14269,-0.2954 0.32105,-0.1814c1.29449,0.8236 3.35136,-0.305 4.75287,-0.4009c0.21315,-0.0143 0.52857,0.2983 0.18686,0.3211zM271.12534,266.6976c-3.23871,-0.8911 -7.11577,-1.1448 -9.81187,-3.3678c-0.21868,-0.1805 0.2835,-0.171 0.4009,-0.0722c2.56932,2.1176 6.37692,2.3513 9.47392,3.2025c0.29941,0.0836 0.23657,0.3211 -0.06295,0.2375zM243.23965,266.6643c-0.60831,0.6992 -0.65812,1.3842 -0.568,2.2753c0.01878,0.1843 -0.48628,0.0798 -0.50031,-0.0684c-0.09388,-0.9348 -0.03478,-1.6635 0.60169,-2.395c0.10139,-0.1206 0.58015,0.0589 0.46661,0.1881z" fill="#010101"/><path d="M233.0006,182.3024c0.7595,0.0352 1.4776,0.1872 2.21645,0.3715c0.03281,0.0085 0.18301,0.0456 0.17649,0.1016c-0.34833,2.8348 -1.42691,6.0544 -3.26687,8.266c-1.57335,1.8876 -4.39901,2.2515 -6.66892,1.956c-0.08923,-0.0133 -0.41305,-0.171 -0.16996,-0.1377c2.93366,0.3762 5.69074,-0.5007 7.28474,-3.1046c0.7097,-1.1543 1.22137,-2.432 1.66259,-3.7107c0.21779,-0.6365 0.38864,-1.2882 0.5426,-1.9428c0.05346,-0.2441 0.10227,-0.4873 0.14269,-0.7324c0.1671,-0.9168 -1.08145,-0.8978 -1.67197,-0.9244c-0.07135,-0.0047 -0.42521,-0.152 -0.24783,-0.1425zM233.22501,182.3357c-0.2,2.6552 -1.45418,5.4995 -3.47903,7.2342c-0.77917,0.666 -3.00026,2.4748 -3.97568,1.1913c-0.14457,-0.1909 0.21502,-0.228 0.31167,-0.0988c0.8853,1.1676 3.72785,-1.5789 4.27233,-2.1555c1.45972,-1.5447 2.3375,-4.1762 2.49521,-6.2738c0.01028,-0.1615 0.38953,-0.0722 0.3755,0.1026zM257.79876,182.8829c0.09299,1.7423 0.42056,3.4637 1.31712,4.9808c0.09852,0.1682 -0.28449,0.1473 -0.35673,0.0247c-0.90496,-1.5361 -1.2439,-3.2775 -1.33965,-5.0445c-0.00939,-0.1786 0.37086,-0.1092 0.37926,0.039zM257.6533,183.0254c-0.69843,0.0408 -1.74233,-0.0171 -1.62405,0.9338c0.06384,0.5007 0.15396,0.9994 0.24783,1.4953c0.19526,1.0393 0.49191,2.0558 0.87868,3.0381c0.37076,0.95 0.99973,1.71 1.55547,2.5489c0.20089,0.3011 -0.06097,0.1026 -0.00563,0.1007c0.16809,-0.0019 0.34082,0.0579 0.49853,0.1054c0.21868,0.0637 0.18212,0.21 -0.03854,0.1435c-0.93125,-0.2784 -1.07483,-0.7144 -1.70666,-1.6378c-1.25882,-1.844 -1.64094,-4.37 -1.88403,-6.5465c-0.00376,-0.0294 0.00563,-0.0437 0.03281,-0.0513c0.60831,-0.1501 1.18007,-0.2688 1.80715,-0.3049c0.092,-0.0038 0.43647,0.1643 0.23844,0.1748z" fill="#010101"/><path d="M253.80441,189.6877c-3.88744,0.9994 -7.05667,3.2025 -9.70397,6.2159c-0.06384,0.0703 -0.41582,-0.0608 -0.35386,-0.134c2.65668,-3.0257 5.85121,-5.2297 9.74991,-6.2339c0.08824,-0.0237 0.42244,0.1235 0.30791,0.152zM230.04352,176.0191c-0.48815,1.1799 -0.75753,2.3779 -1.07957,3.6081c-0.4928,1.8829 -1.14617,3.7259 -1.64845,5.6107c-1.00259,3.7687 -1.73008,7.6076 -2.26991,11.4703c-0.02154,0.1615 -0.52659,0.0466 -0.50218,-0.1377c0.5172,-3.705 1.22127,-7.3777 2.14501,-10.9991c0.49102,-1.92 1.05615,-3.8171 1.66259,-5.7c0.43084,-1.3338 0.64863,-2.6838 1.18846,-3.9881c0.07135,-0.171 0.56602,-0.0143 0.50406,0.1358zM257.66081,178.4131c0.69181,1.7784 0.90585,3.6252 1.17532,5.5053c0.33232,2.299 0.56325,4.6113 0.6843,6.9283c0.22629,4.427 -0.12204,8.8711 -1.20437,13.1699c-0.05257,0.2071 -0.55574,0.0722 -0.50228,-0.1378c1.03826,-4.1306 1.36782,-8.3438 1.22226,-12.5951c-0.0751,-2.1508 -0.29378,-4.294 -0.56701,-6.4258c-0.27688,-2.1574 -0.48904,-4.3709 -1.28323,-6.4106c-0.09763,-0.2527 0.40554,-0.2156 0.47501,-0.0342zM224.9686,196.6636c-0.06947,2.4814 -0.89271,4.9485 -1.27196,7.3929c-0.47975,3.0609 -1.02799,6.0885 -1.65695,9.1209c-0.62521,2.9973 -1.027,6.0287 -1.39213,9.0678c-0.19437,1.6273 -0.40554,3.2547 -0.57926,4.8849c-0.18301,1.6948 -0.64675,3.3658 -0.69092,5.073c-0.00751,0.2479 -0.51157,0.1539 -0.50782,-0.0485c0.03468,-1.2834 0.31443,-2.5184 0.52758,-3.7791c0.2675,-1.5789 0.37076,-3.1986 0.56701,-4.7908c0.37827,-3.0638 0.73223,-6.1285 1.30013,-9.1675c0.568,-3.0343 1.23352,-6.0382 1.71041,-9.0906c0.22342,-1.4326 0.42155,-2.868 0.72571,-4.2845c0.31354,-1.4582 0.72096,-2.9241 0.76227,-4.427c0.00464,-0.2479 0.51157,-0.152 0.50594,0.0485zM258.36864,204.0137c-0.13054,1.3775 -0.74636,2.7417 -1.01949,4.1107c-0.3342,1.6587 -0.58302,3.3383 -0.75288,5.0207c-0.3586,3.573 -0.41404,7.1725 -0.32204,10.7597c0.0498,1.9209 0.06384,3.8466 0.17649,5.7656c0.11739,1.9864 0.2422,4.3671 1.35744,6.0762c0.13617,0.2118 -0.37264,0.1786 -0.47126,0.0228c-1.027,-1.5723 -1.19034,-3.6499 -1.3443,-5.4787c-0.17925,-2.1413 -0.15959,-4.2978 -0.22342,-6.4448c-0.1004,-3.2718 -0.0253,-6.5493 0.23281,-9.8154c0.13429,-1.6976 0.36611,-3.3782 0.65812,-5.0549c0.14269,-0.8199 0.31256,-1.6397 0.49092,-2.451c0.2,-0.9054 0.62709,-1.7176 0.71444,-2.6496c0.01878,-0.1871 0.52284,-0.0722 0.50317,0.1387zM256.93323,235.4464c0.79043,0.2574 1.76022,0.5624 1.91229,1.5019c0.0835,0.5159 -0.1671,1.1277 -0.30514,1.6112c-0.29941,1.0536 -0.60268,2.1147 -0.86267,3.1797c-0.27323,1.1115 -0.092,1.5846 0.56978,2.4624c0.60644,0.8065 1.027,1.6625 1.3274,2.6305c0.52007,1.6749 0.44784,3.5217 -0.01966,5.1946c-0.02816,0.1083 -0.52857,-0.0304 -0.49942,-0.1387c0.44023,-1.5846 0.47313,-3.1796 0.11917,-4.787c-0.16236,-0.7315 -0.45999,-1.4212 -0.80822,-2.0786c-0.34546,-0.6489 -1.04577,-1.0963 -1.37157,-1.7015c-0.25435,-0.4788 0.16621,-1.6663 0.28449,-2.1517c0.19991,-0.8189 0.44961,-1.6331 0.67215,-2.4472c0.43647,-1.6017 0.73974,-2.5422 -1.19133,-3.173c-0.34072,-0.1083 -0.01403,-0.1634 0.17273,-0.1026zM245.73862,226.4147c-0.17935,1.6483 -0.30416,3.3041 -0.50416,4.9524c-0.21117,1.728 -0.69656,3.382 -1.03728,5.0834c-0.57926,2.8738 -0.60179,5.8577 -0.90783,8.7638c-0.01878,0.1757 -0.39615,0.0826 -0.3755,-0.1007c0.30603,-2.9156 0.3755,-5.871 0.90595,-8.7647c0.29289,-1.6017 0.76415,-3.1521 0.99696,-4.7671c0.24971,-1.7471 0.35574,-3.5141 0.54636,-5.2678c0.01779,-0.1757 0.39517,-0.0826 0.3755,0.1007zM249.73772,191.4775c-0.47126,2.5926 -0.6346,5.2212 -1.12937,7.8185c-0.54072,2.8282 -0.95842,5.6763 -1.49262,8.5054c-1.17246,6.2044 -1.44381,12.3072 -1.37809,18.6133c0.00188,0.1045 -0.37362,0.038 -0.3755,-0.1007c-0.06384,-6.1322 0.15583,-12.1068 1.28896,-18.144c0.53786,-2.8643 0.96692,-5.7428 1.5114,-8.607c0.5172,-2.7199 0.70594,-5.4768 1.19874,-8.19c0.02164,-0.1168 0.4009,-0.0237 0.37649,0.1045zM243.26683,193.9361c2.06813,-0.4047 3.65087,-2.0577 5.67947,-2.6125c0.11552,-0.0294 0.44408,0.1454 0.23281,0.2043c-2.03147,0.5548 -3.60383,2.204 -5.67947,2.6125c-0.11542,0.0199 -0.44398,-0.1615 -0.23281,-0.2043zM242.91109,255.5246c0.55387,-0.9129 1.19034,-1.7679 1.72168,-2.6989c0.28439,-0.4931 0.52471,-1.0137 0.67116,-1.5685c0.20188,-0.76 -0.46375,-1.5589 -0.81197,-2.165c-0.74636,-1.292 -1.17344,-2.5365 -1.58086,-3.9596c-0.03478,-0.1226 0.3426,-0.0656 0.3755,0.0532c0.18113,0.6355 0.29289,1.2673 0.53321,1.8819c0.42333,1.0925 1.04479,2.0368 1.60804,3.0543c0.99231,1.7936 -1.27572,4.0764 -2.13937,5.5043c-0.07135,0.1187 -0.42906,-0.0143 -0.37738,-0.1017zM261.67493,263.592c-0.34833,-0.4104 -0.21878,-0.6137 -0.88154,-0.2223c-0.39991,0.2356 -0.61671,0.8123 -0.81672,1.2056c-0.45149,0.8882 -1.09736,1.3879 -2.02109,1.7014c-2.29432,0.7743 -4.89655,0.0523 -7.1796,-0.4018c-1.4279,-0.2841 -3.12981,-0.6527 -4.57549,-0.2917c-0.78668,0.1967 -1.54519,0.5681 -2.30845,0.8408c-0.6599,0.2356 -2.3544,0.9462 -2.79463,-0.02c-0.12115,-0.2584 0.38677,-0.2517 0.47877,-0.0532c0.32856,0.7192 3.87232,-0.9889 4.47599,-1.1381c2.05301,-0.5139 4.47875,0.2622 6.49145,0.6536c1.45606,0.2822 2.91301,0.456 4.38962,0.2432c1.4523,-0.208 2.18918,-0.9984 2.82378,-2.2287c0.2591,-0.5006 0.67877,-0.9642 1.2523,-1.0725c0.68341,-0.1302 0.67314,0.1548 1.08431,0.6422c0.20465,0.2403 -0.27698,0.3125 -0.41868,0.1415zM259.60592,251.8206c0.91336,0.7752 1.62681,1.9133 2.36468,2.8547c0.91158,1.1638 1.77988,2.3589 2.6135,3.5825c0.10801,0.1596 -0.3839,0.0893 -0.459,-0.0219c-0.67215,-0.9889 -1.37345,-1.957 -2.0953,-2.9089c-0.8599,-1.1295 -1.73393,-2.5441 -2.81251,-3.4637c-0.21028,-0.1795 0.29101,-0.1244 0.38864,-0.0427zM264.60662,258.3148c-0.30979,0.969 -0.58292,1.9475 -0.91711,2.9051c-0.29665,0.8455 -0.64873,2.0273 -1.4279,2.5536c-0.11354,0.076 -0.52946,-0.1321 -0.4759,-0.1691c0.76128,-0.5178 1.09923,-1.6958 1.39964,-2.5213c0.34833,-0.9557 0.60742,-1.9371 0.91909,-2.9061c0.03281,-0.1035 0.53134,0.0475 0.50218,0.1378zM218.68082,259.0387c-0.90209,1.0982 -1.79678,2.1451 -2.59284,3.3259c-0.08261,0.1216 -0.53697,-0.0817 -0.50218,-0.1377c0.79794,-1.1818 1.68877,-2.2268 2.59284,-3.3269c0.09664,-0.1188 0.5341,0.0997 0.50218,0.1387zM216.08896,262.3637c-0.73697,2.128 1.18095,3.0685 1.85399,4.7775c0.10801,0.2755 -0.39803,0.2755 -0.4844,0.0589c-0.31918,-0.8122 -1.04479,-1.4639 -1.50764,-2.1964c-0.5426,-0.8578 -0.69843,-1.8126 -0.36611,-2.7778c0.0836,-0.2356 0.58489,-0.0921 0.50416,0.1378zM214.81977,251.1204c-0.08449,3.3231 1.05704,6.8495 2.13562,9.957c0.04229,0.1225 -0.44873,0.0589 -0.49655,-0.0817c-1.08708,-3.1303 -2.22772,-6.6652 -2.14135,-10.014c0.00376,-0.1092 0.50604,-0.0228 0.50228,0.1387zM214.30997,251.1594c0.82334,-1.5761 2.21645,-2.7009 3.40679,-3.9777c0.11166,-0.1187 0.58667,0.0608 0.46938,0.191c-1.17344,1.2578 -2.56191,2.3674 -3.37389,3.9225c-0.08449,0.1606 -0.568,-0.0114 -0.50228,-0.1358zM217.69987,247.2083c-0.00188,-2.0985 -0.49191,-4.3548 0.21117,-6.3726c0.48628,-1.3974 0.92937,-2.6334 1.04676,-4.1315c0.1173,-1.5238 -0.02816,-3.0685 -0.08637,-4.5942c-0.00376,-0.058 0.49467,0 0.50218,0.1368c0.11453,2.9488 0.25534,5.6249 -0.84112,8.4151c-0.8345,2.1204 -0.33044,4.4536 -0.33044,6.6832c0.00099,0.0637 -0.50218,-0.0047 -0.50218,-0.1368zM241.45691,263.612c0.84863,-1.5723 2.1704,-2.7845 3.31667,-4.1268c0.09575,-0.1112 0.45436,0.0285 0.34823,0.1558c-1.14429,1.3423 -2.46794,2.5545 -3.31657,4.1268c-0.06759,0.1225 -0.43282,-0.001 -0.34833,-0.1558zM244.75945,259.5412c-0.64586,-1.7423 -1.45784,-3.3943 -2.39472,-4.9932c-0.09388,-0.1615 0.28627,-0.1282 0.35198,-0.0171c0.94814,1.6179 1.76773,3.2918 2.42011,5.0521c0.0498,0.1387 -0.33044,0.0912 -0.37738,-0.0418zM239.07721,267.6409c-2.87822,0.2822 -5.70763,0.2043 -8.50424,-0.588c-1.40626,-0.4009 -2.76083,-1.0156 -4.12677,-1.5362c-0.74913,-0.2821 -1.49163,-0.5795 -2.22673,-0.8949c-0.97907,-0.4199 -2.08117,-1.0526 -2.80777,0.2176c-0.09388,0.1653 -0.58114,-0.0038 -0.46375,-0.21c1.19034,-2.0814 4.19624,0.0608 5.70576,0.6403c2.05024,0.7866 4.05167,1.6274 6.22484,1.9941c1.98552,0.3372 4.01698,0.2527 6.01179,0.0589c0.21404,-0.0238 0.5257,0.2859 0.18686,0.3182zM238.80586,267.3626c0.81958,-0.0238 1.56209,-0.6118 2.05024,-1.2417c0.50416,-0.6488 0.50792,-1.7622 0.53134,-2.5507c0.00376,-0.1378 0.50792,-0.0428 0.50416,0.1368c-0.02727,0.9443 -0.08449,1.9864 -0.68065,2.7512c-0.51345,0.6593 -1.37147,1.1381 -2.2042,1.1656c-0.16987,0.0038 -0.53974,-0.2527 -0.20089,-0.2612z" fill="#010101"/><path d="M225.6952,160.1104c0.96504,0.609 1.51891,1.9665 2.22584,2.851c0.87492,1.0925 1.80429,2.1413 2.65292,3.2547c0.18864,0.2517 -0.29012,0.2869 -0.41404,0.1225c-0.77541,-1.0165 -1.61179,-1.9845 -2.42387,-2.9716c-0.36325,-0.4446 -0.71909,-0.8958 -1.06356,-1.3585c-0.4178,-0.5614 -0.68717,-1.3129 -1.30398,-1.7005c-0.28726,-0.1833 0.13992,-0.3163 0.32669,-0.1976zM220.78086,165.9529c1.16307,1.3851 3.09503,2.5565 4.60741,3.5606c0.99034,0.6565 1.87751,1.3804 2.76459,2.1803c0.21779,0.1976 -0.28064,0.1966 -0.40554,0.0855c-1.02512,-0.9253 -2.0868,-1.6872 -3.20679,-2.4795c-1.41564,-1.0013 -3.10066,-1.9922 -4.23003,-3.3355c-0.14269,-0.171 0.36335,-0.1368 0.47037,-0.0114z" fill="#010101"/><path d="M258.13958,156.0254c0.38301,1.2407 0.62521,2.5099 1.06267,3.7345c0.09951,0.2802 -0.40465,0.2802 -0.48351,0.0627c-0.43647,-1.2265 -0.67867,-2.4928 -1.06168,-3.7354c-0.08548,-0.2831 0.41493,-0.2822 0.48252,-0.0618zM259.21253,159.5119c0.00287,2.489 -1.15467,3.896 -2.80688,5.5566c-0.08538,0.0874 -0.53509,-0.1045 -0.47402,-0.1663c1.65596,-1.6625 2.78247,-3.0561 2.77872,-5.5242c0,-0.0646 0.50218,0.0019 0.50218,0.1339z" fill="#010101"/><path d="M240.82231,125.0003c3.53911,1.1315 7.11676,2.7493 9.97897,5.1823c0.21779,0.1862 -0.28252,0.1719 -0.39991,0.0722c-2.76646,-2.3522 -6.22207,-3.9216 -9.6429,-5.016c-0.29378,-0.0941 -0.23469,-0.3335 0.06384,-0.2385zM247.1514,133.5532c0.96227,2.0301 2.67921,3.5824 3.43683,5.7199c0.48628,1.369 0.2919,2.8624 0.13607,4.2703c-0.21591,1.9703 -0.43459,3.8969 -0.07322,5.8653c1.22325,6.6272 4.89003,12.4953 6.92337,18.8537c0.06472,0.2061 -0.44497,0.1406 -0.50604,-0.0523c-0.99973,-3.1321 -2.36754,-6.1085 -3.66115,-9.1228c-1.23165,-2.8652 -2.19106,-5.7988 -3.03594,-8.8027c-0.9603,-3.4058 0.34645,-6.631 -0.04783,-10.0311c-0.3004,-2.5982 -2.57407,-4.4099 -3.64613,-6.6699c-0.11552,-0.2404 0.39141,-0.2052 0.47402,-0.0304zM257.5782,168.2529c-0.00188,0.3477 -0.00662,0.6773 -0.0582,1.0193c-0.07135,0.4722 -0.54547,0.646 -0.13706,1.0631c0.51157,0.5272 0.88144,1.4573 0.75664,2.1992c-0.14368,0.8588 -0.88154,1.5162 -0.82423,2.3712c0.06571,1.0108 0.54725,1.6511 0.96405,2.5023c0.72946,1.4868 -3.67992,2.1907 -4.39614,2.338c-3.3148,0.683 -6.85203,1.0355 -10.22967,0.7628c-2.26991,-0.1824 -4.46848,-0.8493 -6.58255,-1.6748c-1.23352,-0.4807 -2.43325,-1.0479 -3.62824,-1.615c-0.67877,-0.3211 -1.35467,-0.6479 -2.03334,-0.97c-0.64211,-0.304 -0.8768,-0.303 -1.47385,-0.1206c-0.22906,0.0703 -0.5924,-0.2641 -0.28637,-0.3582c0.52106,-0.1586 0.55387,-0.4484 1.09647,-0.2555c0.99884,0.3553 1.96575,0.9262 2.92427,1.3822c2.37031,1.1315 4.77451,2.1755 7.33257,2.7949c3.47814,0.8427 7.18247,0.5149 10.68492,0.0143c1.48136,-0.2119 2.9637,-0.494 4.39249,-0.951c0.70594,-0.227 2.0953,-0.5985 1.53106,-1.4677c-0.62897,-0.969 -1.19973,-2.4786 -0.51533,-3.5321c0.49655,-0.7591 0.65337,-1.4697 0.39991,-2.3522c-0.14645,-0.5007 -0.63835,-0.7857 -0.82522,-1.217c-0.02717,-0.0646 -0.05445,-0.1919 -0.03468,-0.2603c0.16522,-0.6279 0.43084,-0.9984 0.43272,-1.7062c0,-0.2774 0.51167,-0.209 0.50979,0.0333zM228.29091,139.0404c-0.2751,1.1447 -1.07769,2.5289 -2.30371,2.7749c-0.17747,0.0352 -0.38588,-0.2118 -0.13706,-0.2622c1.09647,-0.2194 1.82208,-1.6159 2.06427,-2.6153c0.03854,-0.1653 0.41681,-0.0646 0.37649,0.1026zM226.16932,141.6871c-1.05141,0.9015 -1.3021,2.6999 -1.81743,3.9548c-0.66652,1.634 -0.23281,2.9868 -0.09862,4.6512c0.04882,0.5938 -0.11166,1.2027 -0.13795,1.7936c-0.02441,0.6137 0.29289,1.1467 0.60268,1.6473c0.50594,0.8284 0.55011,1.5609 -0.30228,2.1271c-0.13992,0.0931 -0.47126,-0.1017 -0.29101,-0.2204c1.36396,-0.9073 -0.33795,-2.3646 -0.39052,-3.5825c-0.02352,-0.5928 0.12856,-1.2027 0.13894,-1.7945c0.01215,-0.7239 -0.21878,-1.4706 -0.3258,-2.1831c-0.19427,-1.3139 0.42343,-2.5118 0.90032,-3.6898c0.43371,-1.0735 0.51068,-2.1366 1.42968,-2.926c0.13054,-0.1083 0.4591,0.0798 0.292,0.2223zM221.12633,153.1013c-2.59097,-0.3543 -5.89163,0.3401 -7.09324,2.9536c-0.02816,0.0598 -0.27224,-0.0257 -0.25346,-0.0684c1.22315,-2.661 4.60178,-3.3469 7.23494,-2.9878c0.06384,0.0105 0.27599,0.1245 0.11176,0.1026zM224.44013,155.521c1.30112,0.1586 2.62002,1.1134 2.75431,2.5061c0.09852,1.006 -0.18498,2.4861 -1.44104,2.3816c-0.15959,-0.0152 -0.53697,-0.2859 -0.20277,-0.2574c0.89933,0.076 1.08807,-0.9833 1.14528,-1.6739c0.11453,-1.3395 -0.80545,-2.5432 -2.17317,-2.7113c-0.23281,-0.0276 -0.43282,-0.2879 -0.08261,-0.2451zM225.71961,160.5161c-0.31918,-1.274 -2.6717,0.3619 -3.02279,0.6669c-0.52471,0.455 -0.95941,1.025 -1.33491,1.6055c-0.86178,1.3338 -1.34054,3.1758 0.35396,4.0726c0.07322,0.038 0.14832,0.1416 0.04595,0.1948c-1.06544,0.532 -1.8287,1.063 -3.06973,1.0393c-1.16593,-0.0228 -2.32811,-0.5282 -3.19928,-1.2977c-1.0683,-0.9472 -1.43343,-2.6724 -1.25418,-4.0337c0.22817,-1.7281 1.67573,-3.0077 3.0641,-3.8456c0.13805,-0.0836 0.60367,0.1206 0.40179,0.2432c-2.66607,1.6093 -4.39901,5.2639 -1.58462,7.7567c0.72284,0.6394 1.76209,0.8816 2.69522,0.9006c0.81761,0.0162 1.24005,-0.3543 1.91407,-0.6916c0.57076,-0.2859 0.59142,-0.1244 0.09951,-0.4712c-0.25159,-0.1767 -0.50594,-0.4769 -0.61108,-0.7666c-0.74261,-2.0064 1.14429,-4.2864 2.61162,-5.3884c0.6843,-0.513 3.05283,-1.2797 3.39167,0.0788c0.04694,0.1843 -0.45712,0.1064 -0.5013,-0.0636zM214.68923,162.3914c-1.28886,-0.4199 -1.70854,-1.5362 -1.83897,-2.8263c-0.13894,-1.3927 -0.26196,-2.9659 0.86366,-3.9501c0.15959,-0.1406 0.60456,0.0969 0.38864,0.286c-1.3021,1.14 -1.2523,5.529 0.67492,6.1579c0.30228,0.0978 0.21878,0.4322 -0.08824,0.3325zM253.05716,157.5863c1.50764,0.1795 2.8388,-0.2907 4.04505,-1.1676c0.40653,-0.2964 2.72427,-2.1964 1.78275,-2.811c-0.41404,-0.2708 -0.96692,-0.6992 -0.94538,-1.2616c0.0254,-0.646 0.19249,-1.2274 0.06196,-1.8829c-0.14645,-0.7391 -1.01198,-1.2531 -1.54707,-1.673c-0.03656,-0.0285 -0.12204,-0.0959 -0.092,-0.1567c0.44309,-0.8911 0.76138,-1.8335 0.75851,-2.8424c-0.00277,-1.1505 -0.87492,-2.1575 -1.52078,-3.0277c-1.13115,-1.5238 -1.64934,-3.4751 -2.31309,-5.2345c-0.40742,-1.0754 -0.67867,-2.204 -1.03075,-3.2984c-0.41957,-1.3062 -0.90209,-3.3316 -2.07554,-4.1885c-0.27698,-0.2024 0.14645,-0.3002 0.3173,-0.1767c0.84676,0.6175 1.25981,1.7157 1.63719,2.6581c0.50594,1.2635 0.8852,2.5764 1.27572,3.8798c0.42531,1.4231 1.00546,2.8025 1.5114,4.199c0.7097,1.9646 2.69798,3.3953 2.70174,5.5879c0.00188,0.778 -0.30692,1.5684 -0.60831,2.2705c-0.17461,0.4056 0.99696,1.1865 1.24015,1.5076c0.34922,0.4598 0.33607,1.0764 0.29941,1.6226c-0.04694,0.7591 -0.08538,1.3395 0.64586,1.8383c0.11739,0.0798 0.27698,0.1634 0.35396,0.2926c0.52471,0.8702 -1.27582,2.3436 -1.78551,2.7436c-1.38284,1.0849 -2.89324,1.6416 -4.65435,1.4316c-0.25257,-0.0313 -0.40554,-0.3515 -0.0582,-0.3106zM224.24675,148.0046c2.21072,2.7569 5.34053,5.7627 5.7442,9.4686c0.11176,1.0127 0.23469,2.2154 -0.60169,2.9469c-1.48136,1.2949 1.20813,3.3193 1.84648,4.4156c0.17085,0.2907 -0.28439,0.9092 -0.41117,1.141c-0.55762,1.0326 -1.15467,2.0415 -1.66249,3.1036c-1.09271,2.2829 -2.17604,5.6003 0.48252,7.2086c0.2919,0.1767 -0.13054,0.3401 -0.33044,0.2185c-4.33804,-2.6248 -0.08073,-8.2222 1.34054,-11.3202c0.35198,-0.7695 -1.60063,-2.3379 -1.99678,-3.0875c-0.71909,-1.3604 0.68065,-1.957 0.88154,-3.1312c0.70683,-4.1249 -3.41144,-7.96 -5.7105,-10.8262c-0.19991,-0.2479 0.27975,-0.3097 0.4178,-0.1377zM213.72982,155.7528c-0.94528,-1.1239 -1.37147,-3.1521 -0.00563,-4.1202c0.12866,-0.0902 0.57175,0.1121 0.47126,0.1834c-1.30764,0.9272 -0.91336,2.8747 -0.00563,3.9539c0.12115,0.1453 -0.37076,0.0874 -0.45999,-0.0171zM229.81821,123.7967c1.39311,2.9383 4.33804,4.6911 7.31389,5.6335c1.4194,0.4493 2.57595,0.5814 3.89584,-0.1758c1.61367,-0.9262 1.70666,-2.4082 -0.14832,-3.1673c-0.2422,-0.0997 -0.02352,-0.2517 0.15583,-0.1786c0.89834,0.3677 2.21823,1.1733 1.5198,2.3437c-0.68243,1.14 -2.11783,1.8629 -3.41984,1.8458c-1.77336,-0.0228 -3.77192,-1.0013 -5.29181,-1.8382c-1.84461,-1.0137 -3.4649,-2.5137 -4.38023,-4.4451c-0.0835,-0.1767 0.29576,-0.1425 0.35485,-0.018zM229.58728,123.5839c-3.46865,1.1086 -6.97397,2.6951 -9.77808,5.0806c-0.12579,0.1045 -0.58667,-0.0912 -0.46938,-0.19c2.82378,-2.3997 6.35449,-4.0024 9.84379,-5.1186c0.13706,-0.0437 0.5924,0.1691 0.40366,0.228zM219.76889,128.7243c-1.44479,1.4915 -3.19552,2.6828 -4.28636,4.4926c-0.53796,0.8863 -0.58302,1.8382 -0.75664,2.83c-0.23657,1.3794 -0.89093,2.584 -0.81771,4.0195c0.0582,1.1295 0.59053,2.2192 0.75476,3.3392c0.14457,0.9795 -0.17925,1.9912 -0.45248,2.9156c-0.58667,1.9845 -1.59677,4.2237 -0.68529,6.2624c0.0582,0.1244 -0.43272,0.0722 -0.49843,-0.076c-0.86553,-1.9352 -0.01976,-4.0774 0.57165,-5.967c0.38113,-1.2112 0.69092,-2.355 0.50416,-3.6394c-0.1671,-1.1267 -0.77541,-2.204 -0.71533,-3.3678c0.0666,-1.2521 0.5595,-2.412 0.84014,-3.6223c0.26572,-1.1476 0.30416,-2.0872 0.93312,-3.1274c1.027,-1.7015 2.78346,-2.8443 4.14179,-4.2484c0.10237,-0.1093 0.57551,0.076 0.46661,0.189z" fill="#010101"/><path d="M230.2031,112.8717c-0.98095,3.1568 -4.26284,0.5918 -5.45417,-1.0802c-1.41564,-1.9845 -0.35386,-6.9103 2.62763,-5.0654c0.21591,0.1359 -0.10613,0.2242 -0.2422,0.1397c-1.68887,-1.046 -2.3873,0.8255 -2.64729,1.9237c-0.21878,0.9244 0.01779,1.8582 0.43459,2.6781c0.42432,0.8369 1.18945,1.462 1.93384,1.9902c0.38489,0.2717 0.79606,0.495 1.23916,0.6536c1.07117,0.38 1.48887,-0.5624 1.72919,-1.3442c0.04882,-0.1511 0.42531,-0.0447 0.37926,0.1045zM225.95805,111.6671c-0.0497,0.1016 1.04676,1.1637 2.29906,0.7362c0.5595,-0.1387 1.15655,-0.2897 1.54045,-0.0978c0.35584,0.266 0.08261,0.6555 0.14457,0.626c-0.06947,0.0247 0.24971,-0.3372 -0.11917,-0.664c-0.40742,-0.2328 -1.027,-0.1045 -1.59124,-0.0048c-1.22127,0.3107 -2.08493,-0.6897 -2.0371,-0.7533c-0.06947,-0.1254 -0.18489,-0.2024 -0.25811,-0.1739c-0.07135,0.0295 -0.06571,0.1777 0.02154,0.3316zM229.14982,109.9134c-0.13894,0.0399 -0.82887,-1.1201 -2.00044,-1.806c-0.62897,-0.2242 -1.3443,-0.1187 -1.71041,0.2147c-0.36048,0.3639 -0.22718,0.7505 -0.26572,0.7315c0.03666,0.02 -0.06571,-0.3743 0.29388,-0.6963c0.36137,-0.2964 1.06168,-0.3563 1.62592,-0.1159c1.03263,0.6726 1.71605,1.9095 1.86625,1.8857c0.13419,0.1235 0.27876,0.1729 0.32669,0.1093c0.04595,-0.0656 -0.01413,-0.209 -0.13617,-0.323zM246.2831,113.8226c-0.33519,0.1359 -0.61958,0.381 -0.93125,0.5634c-0.26759,0.1548 -0.64399,0.1339 -0.92937,0.0513c-0.65061,-0.1891 -0.75763,-0.9082 -0.4093,-1.4203c0.0497,-0.0741 0.29289,0.0133 0.23281,0.1017c-0.34833,0.512 -0.19625,1.2264 0.52284,1.2283c0.50416,0.001 0.87117,-0.4712 1.31426,-0.6517c0.07886,-0.0304 0.30791,0.0836 0.2,0.1273zM246.65672,113.9547c0.97443,-0.0618 2.7552,-0.8987 1.54144,-2.0302c-0.41967,-0.3923 -1.01386,-0.5329 -1.44381,-0.9243c-0.36147,-0.3278 -0.53321,-0.8978 -0.69468,-1.3481c-0.01314,-0.0361 0.2253,-0.0123 0.24783,0.0494c0.28064,0.7857 0.58667,1.3766 1.35932,1.7879c0.51345,0.2727 1.00447,0.5206 1.17157,1.1201c0.28064,1.0051 -1.35092,1.3984 -2.01556,1.4402c-0.04882,0.0028 -0.28726,-0.0874 -0.16611,-0.095zM248.3699,106.52c-0.29003,-0.4826 -0.15771,-1.2217 -0.12481,-1.7585c0.0751,-1.2131 0.21591,-2.3189 -0.53697,-3.381c-0.18311,-0.2575 0.29289,-0.305 0.41582,-0.1311c0.60179,0.8464 0.76978,1.7632 0.70219,2.7958c-0.04783,0.6935 -0.35949,1.7965 0.01976,2.4292c0.14269,0.2337 -0.36898,0.2213 -0.476,0.0456zM248.80084,106.5095c0.25999,1.16 1.28698,2.0995 1.72919,3.2215c0.37076,0.9414 0.55762,1.9921 0.44961,3.001c-0.3004,2.813 -1.60992,5.1737 -2.59284,7.7672c-0.06759,0.1805 -0.44398,0.0741 -0.3755,-0.1016c0.88055,-2.3237 2.054,-4.4774 2.48958,-6.9578c0.27886,-1.5789 -0.01966,-2.9963 -0.66365,-4.4441c-0.40742,-0.913 -1.19321,-1.502 -1.4194,-2.5109c-0.04417,-0.1966 0.3426,-0.1539 0.38301,0.0247zM248.54076,120.0632c-0.67116,1.8743 -1.09271,3.1616 -3.17487,3.534c-2.31211,0.4113 -4.68439,-0.076 -6.83691,-0.931c-2.14511,-0.8512 -4.18596,-2.2943 -5.99213,-3.7278c-1.58926,-1.2597 -2.83969,-2.8785 -3.09315,-4.9486c-0.02727,-0.2014 0.35949,-0.1539 0.38113,0.0257c0.45248,3.6869 4.33982,5.9935 7.2716,7.6475c2.07742,1.1694 4.47875,1.8677 6.86418,1.7603c0.94063,-0.0427 1.89629,-0.1187 2.73553,-0.5985c0.88055,-0.5044 1.14904,-1.9684 1.4691,-2.8614c0.06384,-0.1814 0.43934,-0.075 0.3755,0.0998zM241.14148,123.5411c-0.17085,1.2037 -0.39052,2.5194 0.54072,3.4599c0.12678,0.1273 -0.36513,0.0789 -0.45999,-0.019c-0.96781,-0.9737 -0.76128,-2.3246 -0.5848,-3.5777c0.01878,-0.1339 0.52659,-0.0209 0.50406,0.1368zM247.79262,101.8023c-0.86277,-3.382 -2.66518,-6.2102 -6.22207,-6.9806c-0.31167,-0.0675 -0.22906,-0.3563 0.07698,-0.2907c3.7569,0.8141 5.72918,3.7145 6.65103,7.3254c0.05356,0.2109 -0.45624,0.1378 -0.50594,-0.0541zM245.51608,107.887c-0.81761,-1.0478 -0.22155,-3.5948 0.74448,-4.3823c0.02905,-0.0247 0.14457,0.0237 0.1173,0.0475c-0.94251,0.7685 -1.54045,3.3231 -0.74626,4.3377c0.03192,0.0399 -0.09299,0.0247 -0.11552,-0.0029zM230.08956,116.1311c-0.00563,-0.018 -0.01314,-0.0361 -0.01878,-0.0551c-0.07322,-0.2014 0.30228,-0.1871 0.35949,-0.037c0.47689,1.2901 0.4675,2.7854 0.4093,4.1401c-0.05158,1.2141 -0.17925,2.7597 -1.02512,3.7069c-0.10978,0.1235 -0.4675,-0.0266 -0.34635,-0.1644c0.88332,-0.9908 0.9519,-2.6486 1.00447,-3.9083c0.0497,-1.2084 0.02154,-2.5897 -0.40179,-3.7382c-0.0751,-0.2014 0.3004,-0.1881 0.35762,-0.0371c0.00563,0.0181 0.01314,0.0361 0.01976,0.0542c0.07599,0.2033 -0.30228,0.189 -0.3586,0.0389z" fill="#010101"/><path d="M243.49776,117.5362c-0.05534,0.1387 -0.10227,0.2736 -0.07886,0.4256c0.01976,0.1444 0.04229,0.2821 0.04417,0.4284c0.00188,0.0646 -0.24971,0.0219 -0.25159,-0.0684c-0.00188,-0.1548 -0.03478,-0.2992 -0.05168,-0.4531c-0.01502,-0.1406 0.03666,-0.2746 0.08824,-0.4019c0.03004,-0.0779 0.27698,0 0.24971,0.0694zM243.49776,117.8193c1.71792,0.228 3.648,-0.0979 5.04112,-1.1885c0.07322,-0.0589 0.30791,0.0437 0.23281,0.1007c-1.45221,1.1381 -3.44988,1.4735 -5.24102,1.235c-0.1249,-0.0152 -0.20751,-0.17 -0.03291,-0.1472zM248.52949,116.647c0.22342,-0.4551 0.32481,-0.97 -0.27876,-1.1571c-0.33331,-0.1036 -0.76227,-0.0532 -1.08145,0.0807c-0.77452,0.3259 -1.38847,0.8759 -2.07089,1.3557c-0.0751,0.0532 -0.30603,-0.0561 -0.19813,-0.1311c0.8768,-0.6156 1.72543,-1.4716 2.85382,-1.5105c0.91998,-0.0323 1.46634,0.5386 1.02888,1.4307c-0.04783,0.0969 -0.29378,0.0171 -0.25346,-0.0684zM248.36802,116.8379c0.39052,0.0694 0.58677,0.552 0.70407,0.8911c0.2253,0.6527 -0.40179,1.3177 -0.84863,1.6787c-1.2354,0.9975 -2.94394,0.7676 -4.04791,-0.2755c-0.05346,-0.0504 0.18311,-0.0209 0.22718,0.0199c1.1772,1.1125 2.7553,0.9491 3.86955,-0.0779c0.28825,-0.2622 0.47877,-0.6004 0.56513,-0.9766c0.04793,-0.2033 -0.14269,-1.1162 -0.42145,-1.1666c-0.09862,-0.019 -0.2253,-0.1244 -0.04793,-0.0931z" fill="#010101"/><path d="M239.42732,106.6539c-0.80822,-0.0703 -1.60053,-0.1985 -2.36566,-0.4873c-0.16522,-0.0618 -0.01127,-0.1188 0.09388,-0.0798c0.69843,0.2631 1.4279,0.38 2.16764,0.4446c0.07886,0.0066 0.27125,0.1368 0.10415,0.1225zM237.76572,106.8002c-0.51908,-0.0304 -1.01386,-0.0646 -1.47385,-0.3287c-0.1502,-0.0855 -0.01502,-0.1985 0.10425,-0.132c0.42333,0.2403 0.87117,0.2631 1.34242,0.2926c0.13607,0.0085 0.19991,0.1786 0.02717,0.1681zM237.06165,107.0225c-0.52659,0.1786 -1.13491,0.0352 -1.61555,-0.2128c-0.1502,-0.0769 0.07698,-0.1035 0.15208,-0.0646c0.3755,0.1929 0.85427,0.2974 1.26169,0.1596c0.07411,-0.0237 0.30129,0.0846 0.20178,0.1178zM245.49079,106.8268c0.0253,-0.9414 0.53697,-1.7404 1.47474,-1.9446c0.62897,-0.1387 1.38284,0.1026 1.61565,0.7524c0.05158,0.1396 -0.33044,0.0931 -0.37738,-0.0428c-0.21779,-0.6042 -0.91721,-0.5833 -1.40537,-0.3572c-0.65239,0.3012 -0.91148,1.0118 -0.92937,1.6958c-0.00464,0.133 -0.38202,0.0541 -0.37827,-0.1036zM245.71609,106.9769c1.14429,0.5738 2.05775,-0.1871 2.68296,-1.0611c0.02154,-0.0304 0.13419,0.0218 0.12668,0.0342c-0.3924,0.5462 -0.91711,1.0421 -1.54707,1.2806c-0.42807,0.1615 -0.95279,-0.0475 -1.33392,-0.2385c-0.0751,-0.037 0.04219,-0.0304 0.07135,-0.0152zM241.24287,107.5783c-0.0497,-1.0013 -1.94698,-0.912 -2.60312,-0.8607c-1.34242,0.1054 -2.43513,1.0089 -3.50531,1.7347c-0.14457,0.0978 -0.47126,-0.1026 -0.29012,-0.2252c1.37157,-0.9291 2.61073,-1.8154 4.31828,-1.8183c0.79231,-0.0009 2.40885,0.1131 2.46428,1.197c0.01028,0.2024 -0.37362,0.1501 -0.384,-0.0275zM241.59495,107.6258c-0.13241,1.2017 -1.93482,1.3946 -2.86419,1.52c-1.55458,0.2071 -2.41823,-0.1615 -3.78971,-0.7638c-0.16334,-0.0713 -0.01127,-0.1311 0.09388,-0.0846c1.23728,0.5425 2.11783,0.8788 3.53911,0.7239c0.90397,-0.0988 2.64354,-0.3182 2.77022,-1.4639c0.0085,-0.0703 0.26097,-0.0162 0.2507,0.0684zM248.15587,104.3863c0.06196,0.3078 -0.1924,0.493 -0.46375,0.5377c-0.06008,0.0104 -0.12856,-0.0751 -0.04407,-0.0893c0.23281,-0.0399 0.43272,-0.2005 0.38113,-0.4598c-0.01314,-0.0589 0.11542,-0.0418 0.12668,0.0114zM248.67129,104.4756c0.18301,0.3667 -0.15583,0.5852 -0.46938,0.6688c-0.06196,0.0171 -0.13617,0.0038 -0.17747,-0.0485c-0.03656,-0.0418 -0.0253,-0.1054 0.03291,-0.1216c0.22342,-0.0589 0.51345,-0.1928 0.3755,-0.4712c-0.0667,-0.1282 0.18864,-0.1263 0.23844,-0.0275zM247.59261,104.3863c0.06196,0.3078 -0.1924,0.4949 -0.46562,0.5405c-0.06008,0.0105 -0.12668,-0.0788 -0.04219,-0.0931c0.23281,-0.0399 0.43272,-0.1976 0.37926,-0.4569c-0.01038,-0.0637 0.11828,-0.0475 0.12856,0.0095zM237.78262,106.6824c0.4506,0.2765 0.81958,0.6622 0.90783,1.2056c0.09575,0.5804 -0.36147,1.026 -0.82146,1.2711c-0.09012,0.0484 -0.31354,-0.077 -0.19427,-0.1397c1.05981,-0.5643 0.89834,-1.6463 -0.05544,-2.2306c-0.14645,-0.0902 0.0667,-0.1662 0.16334,-0.1064zM246.86414,105.0921c0.86089,0.4256 0.87779,1.6749 0.04229,2.1442c-0.09575,0.0551 -0.3173,-0.0779 -0.19437,-0.1454c0.67778,-0.3809 0.79705,-1.4753 0.04042,-1.8487c-0.15208,-0.0769 -0.01502,-0.2128 0.11166,-0.1501zM235.46676,108.2214c0.00563,0.0732 0.0253,0.1302 0.06196,0.1919c-0.08073,-0.0085 -0.16334,-0.0171 -0.24408,-0.0247c0.01878,-0.0465 0.03281,-0.095 0.04783,-0.1415c0.02915,-0.0969 0.25346,-0.0475 0.25346,0.0465c0,0.0399 0,0.0789 0,0.1188c-0.08637,-0.0086 -0.17085,-0.0162 -0.25435,-0.0247c0,-0.1102 0.00188,-0.2204 0.0253,-0.3306c0.01878,-0.0998 0.24408,-0.0418 0.25159,0.0465c0.00939,0.0988 0.04229,0.19 0.07135,0.285c-0.08449,-0.0161 -0.16898,-0.0304 -0.25346,-0.0465c0.0498,-0.2337 0.13054,-0.4437 0.26759,-0.6375c0.0582,-0.0826 0.29665,0.0038 0.23281,0.1064c-0.16147,0.2575 -0.18123,0.5225 0.01127,0.7714c0.09388,0.1226 -0.11739,0.1254 -0.18498,0.0789c-0.17085,-0.1159 -0.36137,-0.1843 -0.51533,-0.3278c-0.04229,-0.0399 -0.02164,-0.094 0.02905,-0.1092c0.06196,-0.0181 0.13241,0.0057 0.17747,0.0494c0.13607,0.1263 0.31918,0.1852 0.47126,0.2907c-0.06008,0.0266 -0.12303,0.0532 -0.18498,0.0788c-0.23469,-0.3059 -0.23844,-0.6146 -0.03468,-0.9395c0.07698,0.0351 0.15396,0.0712 0.23093,0.1064c-0.13054,0.1814 -0.20188,0.379 -0.24783,0.5985c-0.02352,0.1111 -0.23093,0.0313 -0.25346,-0.0466c-0.02727,-0.0969 -0.06008,-0.1862 -0.06947,-0.285c0.08261,0.0152 0.1671,0.0304 0.25159,0.0466c-0.01878,0.0959 -0.02164,0.1909 -0.02164,0.2878c0,0.1226 -0.25346,0.076 -0.25346,-0.0247c0,-0.0399 0,-0.0788 0,-0.1187c0.08261,0.0171 0.1671,0.0313 0.25346,0.0475c-0.0169,0.0475 -0.02717,0.0959 -0.04783,0.1415c-0.04042,0.095 -0.20376,0.0456 -0.24408,-0.0237c-0.04605,-0.0779 -0.07135,-0.1463 -0.07886,-0.2356c-0.01038,-0.1216 0.24309,-0.0779 0.25159,0.0237z" fill="#010101"/><path d="M241.4241,104.1241c-1.13688,0.0057 -2.27742,-0.3354 -3.41055,-0.1957c-1.04854,0.1282 -2.04085,0.8797 -2.92605,1.405c-0.24032,0.1435 -1.04864,-0.2774 -0.95002,-0.3353c0.98283,-0.5843 1.92346,-1.178 3.04345,-1.445c1.15467,-0.2745 2.42199,0.1891 3.58417,0.1824c0.19338,0.001 1.13965,0.3867 0.65901,0.3886zM245.86817,103.8201c0.26186,-0.9823 1.37809,-1.4611 2.13285,-1.9941c0.15208,-0.1092 0.61019,0.1121 0.39428,0.2651c-0.70594,0.4997 -1.77988,0.9471 -2.02495,1.8648c-0.05257,0.2033 -0.55476,0.0665 -0.50218,-0.1358z" fill="#010101"/><path d="M226.16369,113.9262c-0.6346,1.1343 -2.75905,6.2101 -4.63281,5.4036c-1.16406,-0.5026 -1.15842,-2.4938 -1.20437,-3.5882c-0.07886,-1.8705 0.64962,-4.1287 1.33491,-5.8567c0.03656,-0.0931 0.40455,0.0304 0.37738,0.1026c-1.02611,2.583 -1.66634,5.414 -1.00259,8.1567c0.56325,2.3237 2.47733,-0.4541 3.01805,-1.2721c0.64122,-0.9728 1.16406,-2.0311 1.73107,-3.0466c0.05356,-0.096 0.4093,0.0465 0.37837,0.1007zM229.02027,105.7144c-0.79043,-1.4801 -2.00232,-2.4795 -1.86812,-4.3406c0.13429,-1.8525 1.67573,-2.9032 3.07635,-3.8788c3.07062,-2.1375 6.46516,-2.6999 10.04182,-1.8753c0.15396,0.0351 0.11364,0.1757 -0.03844,0.1396c-3.57201,-0.8217 -6.73463,-0.152 -9.80535,1.8658c-1.51416,0.9956 -3.06598,2.1888 -3.01429,4.1705c0.04407,1.6701 1.12364,2.5641 1.84273,3.9083c0.06196,0.1112 -0.19052,0.0912 -0.23469,0.0105zM240.59701,95.8021c-0.30416,-0.0485 -0.48815,-0.0589 -0.75002,-0.2375c-1.07769,-0.7325 -2.35628,-1.197 -3.60858,-1.5267c-2.09906,-0.5538 -4.27608,-0.0427 -6.34974,0.381c-0.06008,0.0123 -0.27886,-0.0865 -0.20564,-0.1007c1.82593,-0.3734 3.6565,-0.7667 5.52463,-0.5615c0.735,0.0808 1.44845,0.2936 2.14501,0.5254c0.4093,0.1368 0.81395,0.3011 1.20635,0.475c0.5595,0.2479 1.41189,0.855 1.99105,0.9471c0.10425,0.0152 0.22155,0.1273 0.04694,0.0979zM240.57546,95.7185c0.28439,-0.647 0.77353,-1.1571 1.0523,-1.8079c0.7097,-1.652 -1.58274,-2.2819 -2.65668,-2.5963c-2.36191,-0.6916 -4.28824,-1.0526 -6.74214,-0.5871c-0.08637,0.018 -0.29852,-0.1178 -0.15208,-0.1444c1.227,-0.2328 2.42762,-0.399 3.67429,-0.2432c1.30586,0.1643 2.58721,0.6355 3.84514,1.0117c0.85051,0.2546 1.66446,0.5919 2.1873,1.3443c0.73509,1.0573 -0.57165,2.222 -0.95753,3.0922c-0.04032,0.0931 -0.28726,0.0162 -0.2506,-0.0693zM244.44215,96.0291c0.99607,-2.2106 -0.52758,-4.4127 -2.49333,-5.3637c-2.03522,-0.987 -3.99534,-1.348 -6.23798,-1.1808c-0.25633,0.0199 -0.50979,-0.3601 -0.17085,-0.3857c2.64541,-0.1976 5.0261,0.3106 7.35609,1.6216c1.8202,1.0241 2.93544,3.4761 2.04836,5.4473c-0.10613,0.2318 -0.60555,0.0855 -0.50228,-0.1387zM229.25496,105.7125c0.78104,0.8768 0.65624,2.166 0.64873,3.2623c0,0.0275 -0.0582,0.0275 -0.0751,0.0275c-1.37345,-0.0123 -1.42128,-1.842 -2.5544,-2.2087c-0.14645,-0.0466 -0.12293,-0.1501 0.0254,-0.1007c0.77917,0.2508 1.11524,1.0535 1.58086,1.6672c0.13894,0.1824 0.7679,0.7667 0.77541,0.2423c0.00376,-0.2831 0.00563,-0.5681 0,-0.8512c-0.0169,-0.7306 -0.13241,-1.4858 -0.63272,-2.0454c-0.06295,-0.0712 0.18587,-0.0456 0.23182,0.0067zM228.38755,86.6365c-3.54099,0.3163 -6.93454,1.7613 -9.79023,3.8779c-2.72615,2.0206 -4.29199,5.0302 -5.50022,8.1396c-0.6599,1.6986 -1.15368,3.4485 -1.42128,5.2525c-0.11354,0.7638 -0.14457,1.5352 -0.17738,2.3057c-0.02253,0.5339 -0.15771,1.8449 0.80071,1.3395c1.09271,-0.5748 1.49173,-2.5375 1.85972,-3.6062c0.50782,-1.4659 1.15556,-3.0011 2.11783,-4.2171c0.09763,-0.1216 0.53697,0.0922 0.50406,0.1368c-1.16969,1.4811 -1.81931,3.3554 -2.43138,5.1281c-0.31167,0.9073 -0.935,2.945 -2.18167,2.9754c-0.59982,0.0143 -1.04577,-0.2375 -1.13115,-0.8949c-0.22906,-1.8078 0.14457,-3.7658 0.57165,-5.5147c0.94063,-3.8409 2.70273,-7.733 5.59973,-10.4529c2.86222,-2.6847 6.99936,-4.3282 10.85201,-4.673c0.10603,-0.0124 0.57729,0.1805 0.32758,0.2033zM222.05945,110.2744c-0.59142,1.3879 -2.0784,5.7209 -4.22252,4.7443c-1.1772,-0.5368 -1.05803,-2.9574 -0.99231,-3.9748c0.11927,-1.7784 0.84587,-3.3507 2.054,-4.5885c0.10613,-0.1083 0.46562,0.0399 0.34833,0.1586c-1.88976,1.9342 -2.45015,4.77 -1.73769,7.3844c0.58489,2.147 2.62575,-0.6707 3.16647,-1.4573c0.46562,-0.6793 0.68529,-1.6207 1.00635,-2.3712c0.06571,-0.1492 0.43746,-0.0352 0.37738,0.1045zM215.75289,101.5249c-0.80733,1.5637 -1.20161,3.6537 -1.50576,5.3722c-0.17085,0.9766 -0.22441,1.9836 -0.05544,2.9631c0.13054,0.7495 0.72284,2.0311 2.0118,0.7847c0.28815,-0.2793 0.49379,-0.665 0.71721,-0.9985c0.08913,-0.1368 0.44873,0.0057 0.3426,0.1644c-0.41957,0.6346 -1.02226,1.6948 -1.93571,1.6197c-0.77353,-0.0617 -1.25605,-0.551 -1.44657,-1.3233c-0.38113,-1.559 -0.07322,-3.2091 0.28627,-4.7424c0.30979,-1.3281 0.61395,-2.793 1.24103,-4.0062c0.07322,-0.1415 0.43469,-0.0057 0.34457,0.1663zM228.88796,115.4851c-0.66375,1.5219 -1.43728,2.9906 -2.45391,4.3026c-0.44033,0.5652 -1.1519,1.1029 -1.87939,0.7875c-0.67877,-0.2935 -0.43845,-1.4335 -0.44033,-2.0026c-0.00751,-0.9775 0.41029,-1.9104 0.74261,-2.8082c0.05445,-0.1425 0.42708,-0.0304 0.3755,0.1017c-0.50604,1.3651 -0.78292,2.4814 -0.75387,3.9282c0.03192,1.7281 1.86723,-0.5006 2.14224,-0.8911c0.76415,-1.0887 1.35843,-2.3009 1.88878,-3.5216c0.06384,-0.1397 0.43371,-0.0228 0.37837,0.1035zM228.24111,116.9928c-0.21591,1.0839 -0.18676,2.2458 0.06384,3.324c0.09862,0.4285 0.26572,0.8892 0.59616,1.1894c0.51533,0.4684 1.33679,-0.7856 1.54233,-1.0849c0.06384,-0.0931 0.42718,0.0295 0.35208,0.1425c-0.57738,0.837 -1.60063,1.8164 -2.43889,0.7144c-0.83085,-1.0953 -0.74261,-3.1283 -0.4929,-4.389c0.02164,-0.113 0.4009,-0.019 0.37738,0.1036z" fill="#010101"/><path d="M239.2621,89.5967c-1.4278,-2.0292 -4.71068,-2.0986 -6.91863,-1.6331c-2.64442,0.5596 -4.99793,2.4292 -6.57129,4.5914c-1.37809,1.8981 -1.90844,4.3111 -1.9366,6.63c-0.02915,2.3 0.60644,5.6012 2.39096,7.2276c0.05544,0.0494 -0.18113,0.0219 -0.22718,-0.019c-2.02672,-1.8458 -2.5046,-5.4682 -2.39284,-8.0693c0.13607,-3.1397 1.54984,-5.9042 3.84702,-7.9724c1.90281,-1.7147 4.42618,-2.7863 6.98711,-2.6999c1.80804,0.0589 3.94564,0.3886 5.06928,1.9884c0.01789,0.0256 -0.20366,0.0171 -0.24783,-0.0437zM239.47336,89.4893c-2.07939,-2.8481 -5.48796,-3.4276 -8.77736,-3.1511c-3.46025,0.2926 -6.43423,1.5979 -8.72954,4.3168c-4.24317,5.034 -2.6548,13.1252 2.3375,16.985c0.13518,0.1036 -0.07322,0.1625 -0.16147,0.0941c-5.70951,-4.4137 -6.57692,-13.2829 -1.28135,-18.3863c4.13428,-3.9824 13.13319,-4.9647 16.84592,0.1254c0.07797,0.1016 -0.17925,0.0921 -0.2337,0.0161z" fill="#010101"/><path d="M241.68784,106.0051c0.47126,0.9376 0.78855,1.8411 0.86553,2.8946c0.00376,0.0418 -0.01314,0.0893 -0.05534,0.1045c-2.08878,0.8408 -4.2742,1.2654 -6.49431,1.5552c-0.46187,0.0608 -1.15378,0.1824 -1.54895,-0.1824c-0.69092,-0.6365 -0.5924,-1.6188 -0.91346,-2.452c-0.0169,-0.0399 0.02164,-0.0912 0.05544,-0.1054c2.35252,-1.0783 5.20347,-1.634 7.75975,-1.9589c0.21591,-0.0276 0.52659,0.2774 0.18676,0.3201c-1.38086,0.1767 -2.77961,0.5615 -4.14742,0.8398c-0.74626,0.152 -1.48136,0.3477 -2.20983,0.5786c-0.75189,0.2403 -1.08896,0.3439 -0.91148,1.1343c0.13419,0.5994 0.07135,1.614 1.13866,1.5561c1.54519,-0.0827 3.13357,-0.4551 4.62994,-0.8493c0.54823,-0.1444 2.03147,-0.4028 1.962,-1.0963c-0.08261,-0.8256 -0.42333,-1.5799 -0.79043,-2.3104c-0.12105,-0.2347 0.38677,-0.1967 0.47313,-0.0285zM244.97724,105.6061c1.03925,-1.0203 2.7966,-1.5485 4.21412,-1.6407c0.22155,-0.0152 0.52471,0.3116 0.18301,0.3335c-1.31238,0.0845 -2.97299,0.5747 -3.93526,1.5209c-0.14645,0.1435 -0.62146,-0.057 -0.46187,-0.2137zM249.53307,104.1716c0.35949,0.8616 0.2253,1.8401 0.21967,2.7502c-0.00188,0.1178 -0.50604,0.0323 -0.50416,-0.1368c0.00939,-0.8939 0.13706,-1.8458 -0.21493,-2.6913c-0.04882,-0.1216 0.44023,-0.0665 0.49942,0.0779zM249.70293,106.9703c-1.27107,0.5339 -2.60312,0.7932 -3.90236,1.2293c-0.12866,0.0427 -0.40179,0 -0.45248,-0.152c-0.26572,-0.798 -0.4844,-1.5561 -0.47877,-2.4026c0.00188,-0.1406 0.50406,-0.0494 0.50406,0.1378c-0.00751,0.8303 0.21779,1.5608 0.47501,2.337c-0.1502,-0.0513 -0.3004,-0.1007 -0.4506,-0.152c1.29835,-0.4351 2.63415,-0.6954 3.90246,-1.2284c0.13706,-0.0608 0.59893,0.1482 0.40268,0.2309zM244.9134,106.8791c-0.21967,-0.6907 -1.1772,-0.1273 -1.56209,0.132c-0.41117,0.2765 -0.81197,0.6916 -0.87492,1.2056c-0.01878,0.1529 -0.52471,0.0408 -0.50218,-0.1368c0.14645,-1.2046 2.9139,-2.774 3.44148,-1.1296c0.0497,0.1587 -0.45159,0.0884 -0.50228,-0.0712zM226.86212,106.2074c1.04291,-0.303 1.91783,-0.0247 2.84156,0.4997c1.27107,0.7201 2.4295,1.0289 3.87617,1.14c0.50969,0.0399 0.82136,0.6536 0.12856,0.5995c-0.82699,-0.0637 -1.59114,-0.2109 -2.39847,-0.3895c-1.23728,-0.2755 -2.56844,-1.6407 -3.84139,-1.2711c-0.33894,0.0988 -1.18382,-0.4104 -0.60644,-0.5786z" fill="#010101"/></g></g></svg>